<svg xmlns="http://www.w3.org/2000/svg" width="250pt" height="250pt" baseProfile="tiny-ps" version="1.2" viewBox="0 0 250 250"><path fill="#30ade3" d="M0 0h25.73C20.59 1.04 15.59.6 10.4.95c3.13 3.46 6.56 6.5 9.2 10.39 2.74 4.09 5.66 8.03 8.45 12.09-3.52.04-7.04.06-10.55.21 4.47 6.73 10.38 12.05 14 19.39-2.57.15-5.14.25-7.71.37 1.53 4.47 4.03 8.34 6.5 12.33 2.28 3.15 1.36 7.31 1.24 10.95-.17 4.33-1.64 9.27.66 13.15 1.82 3.11 3.36 6.01 3.95 9.62-3.59.55-8.04-.09-10.47 3.19-4.63 6.82-4.33 14.37-3.22 22.21.75 3.07 1.73 6.09 2.58 9.13 1.37 4.88 4.7 8.44 7.49 12.55 1.64 2.25 3.13 4.75 5.65 6.11 2.39 1.33 4.77 2.98 7.38 3.83 3.1.7 6.61.03 9.77-.07.93 5.15 2.03 10.24 3.77 15.19 1.14 3.17 1.19 7.03 4.06 9.18 5.26 4.51 10.68 8.82 15.87 13.41-7.37.34-14.72.05-22.08.14-3.33.06-6.88.73-9.28 3.23-3.87 4.17-7.56 8.57-10.84 13.21-1.24 2.46-1.57 5.45-2.18 8.12-3.41 12.96-1.76 27.6-2.14 41.12H0V0Z"/><path d="M25.73 0h3.26l.45.68c.5.79 1 1.57 1.49 2.36-4.44.51-8.91.72-13.36 1.08 4.86 6.93 9.91 13.74 14.79 20.67-2.97.27-5.95.5-8.93.74.82 1.79 1.62 3.79 2.85 5.34 4.61.99 9.74.39 14.4-.05-2.9-3.26-5.92-6.4-8.8-9.67 4.12.13 8.24.39 12.36.63-1.52-2.21-3.1-4.38-4.65-6.57 5.82-.53 11.64-.6 17.47-.63 2.53-.12 5.06.02 7.3-1.32 3.39-2.01 6.56-4.4 9.86-6.54.19 1.54.35 3.09.51 4.64 8.97-.59 17.26-3.71 26.09-4.97-.22-.53-.45-1.05-.68-1.58-2.83-.35-5.65-.73-8.47-1.17 1.45-1.25 2.89-2.5 4.44-3.64h85.51c.85 4.25 1.5 8.38.87 12.73-.63 4.8-2.88 8.78-4.68 13.23 4.81-2.53 9.22-5.5 14.48-7.12-2.77 3.71-6.14 6.74-9.36 10.03 6.73.06 13.45-.09 20.18.14-2.95 4.01-5.51 8.19-7.36 12.82 3.53 1.9 7.01 3.88 10.45 5.94-3.11 3.61-5.99 7.39-8.85 11.2 4.28.78 8.53 1.66 12.75 2.72-.65 2.14-1.11 3.96-3.1 5.26-4.15 2.91-7.16 5.8-10.26 9.82 1.37.87 2.75 1.74 4.12 2.62-.15 1.76-.31 3.53-.45 5.29 1.88 1.03 3.76 2.07 5.64 3.11-1.73 2.28-3.73 4.47-5.14 6.97-.8 1.88-.82 4.15-1.11 6.16 1.29-2.29 2.38-4.95 4.17-6.9 1.76-1.4 3.95-2.33 5.94-3.37.29-3.23.09-6.71.97-9.83 1.02-1.9 2.71-3.44 3.97-5.19-1.8-.84-3.66-1.55-5.49-2.3 1.67-4.05 4.35-7.33 6.65-11.01-1.81-1.11-3.64-2.2-5.47-3.29 3.36-4.46 6.18-9.11 7.71-14.52-2.45-.36-4.89-.71-7.34-1.03-.29-4.6-1.06-9.78.11-14.27 2.43-3.63 6.47-6.22 9.45-9.44-4.97-.74-9.95-1.16-14.94-1.7 1.78-6.27 4.21-13.1 8.56-18.07h3.61c-1.78 2.76-3.45 5.56-5.48 8.16-1.98 2.49-1.98 5.2-2.42 8.2 4.73.34 9.38 1 14.03 1.94.2.9.4 1.8.61 2.7-3.61 2.5-7.29 4.92-9.61 8.79-.99 3.79-.27 8.13-.31 12.03 2.45.48 4.9.95 7.34 1.46-2.55 4.78-4.33 9.85-6.57 14.77 1.48.77 2.94 1.56 4.41 2.34-1.21 4.15-3.28 7.65-5.65 11.22 1.71 1.25 3.44 2.47 5.17 3.69-1.45 2.14-3.19 4.11-4.5 6.33-.7 2.34-.29 5.11-.29 7.54 2.32 1.07 4.52 2.17 6.26 4.1 3.21 4.42 3.78 9.41 3.6 14.74.16 7.59-2.84 15.32-6.23 22-1.69 3.4-4.93 5.68-7.35 8.71-2 2.48-4.33 4.58-6.83 6.54 2.27 1.1 6.06 1.19 6.39 4.26 1.07 6.72-.12 14.54 1.87 21.22 1.55 3.23 2.83 7.13 5.27 9.79 3.64 1.82 7.68 2.55 11.16 4.83 2.6 1.29 3.5 3.71 5.2 5.96 3.89 6.03 8.89 9.77 8.86 17.65-.39 9.04.41 18.1-.31 27.11-.32 4.9-1.77 9.22-3.06 13.92h-4.47c1.07-4.05 1.52-8.21 2.41-12.29 1.04-1.25 2.3-2.07 2.43-3.81.38-3.6.07-7.29.05-10.9-.13-5.42.3-11-.28-16.37-.86-.52-1.72-1.03-2.59-1.53-.85-7.46-6.99-13.86-12.53-18.42-5.07-2.58-11.09-2.41-16.58-2.36-6.53-.14-13.15 1.15-19.61 2.04-2.46.21-4.35 2.11-6.32 3.48-2.23 4.72-1.1 9.64-.13 14.52.51 2.58 1.57 4.85 2.99 7.03.61 1.01 1.2 2.02 1.79 3.05 8.97.24 17.95.01 26.93.02.62-.86 1.24-1.71 1.86-2.57 1.83.07 3.65.17 5.47.25.07 1.3.13 2.6.18 3.89-10.35 2.83-21.86-.09-32.17 2.38-.79.28-1.58.57-2.37.89-.83 4.05-1.31 9.02.49 12.87 1.27 2.1 3.24 3.9 5.77 4.13 6.75.72 13.65-.06 20.4.45 3.91.8 7.7 2.56 11.43 3.99l-.52 1.79c-9.71-.14-19.39-.16-29.1-.31h-1.96c.12 2.62.43 5.22.97 7.78h-9.58c.1-5.05 1.76-11.05-.22-15.74-1.06-3.03-1.99-5.98-1.74-9.25.03-2.86 1.03-5.75.87-8.58-.81-2.53-2.26-4.89-3.39-7.3-1.23-3.2-2.21-6.49-3.38-9.72-.23-1.66-.32-3.32-.29-5 .82-1.66 1.59-3.33 2.34-5.02-4.25-.16-8.53-.34-12.78-.14l-.21.91-.48 2.28c-2.51 1.89-3.87 4.27-5.33 6.98-2.26 2.19-4.38 4.37-7.06 6.06-2 1.34-4.37 2.41-6.09 4.08-1.25 4.52-.42 9.78-.4 14.44.12 8.67.05 17.33.31 26h-4.07c-.01-1.45-.01-2.91-.01-4.36 0-.95-.01-1.91-.02-2.86-.03-2.24-.2-4.48-.44-6.71l-.1-1.14c-.02-2.08.05-4.16.06-6.24v-2.92c.01-1.66.05-3.32.14-4.98.27-3.35.4-6.68.37-10.05-2.17.22-4.3.43-6.44.84-2.55 1.08-5.02 2.66-7.82 2.85-6.09.38-12.21-.33-18.32.25-.97.19-1.93.4-2.9.63-.09 1.96-.08 3.9-.09 5.86l-.03 2.7c-.04 1.72-.11 3.44-.14 5.16-.02 1.03-.03 2.07-.03 3.11-.02 1.68.02 3.35.04 5.03v2.88c-.02 2.06-.02 4.11-.01 6.17.01.79.01 1.59 0 2.38l.16 1.4h-4.18c-.4-13.1.44-26.18 0-39.27-3.23-1.86-7.12-3.76-9.5-6.67-1.29-1.47-2.44-3.07-3.76-4.51-.81-.87-1.65-1.7-2.47-2.55-.67-1.43-1.22-2.9-1.71-4.39-.31-1.05-.61-2.1-.9-3.15-7.74-.23-15.5-.1-23.25-.16-2.7.05-5.97-.04-8.44 1.19-7.3 3.95-11.46 11.27-12.74 19.31-.77 5.71-3.31 10.41-3.28 16.16-.02 8.01.1 16.03.03 24.04H32.5c.38-13.52-1.27-28.16 2.14-41.12.61-2.67.94-5.66 2.18-8.12 3.28-4.64 6.97-9.04 10.84-13.21 2.4-2.5 5.95-3.17 9.28-3.23 7.36-.09 14.71.2 22.08-.14-5.19-4.59-10.61-8.9-15.87-13.41-2.87-2.15-2.92-6.01-4.06-9.18-1.74-4.95-2.84-10.04-3.77-15.19-3.16.1-6.67.77-9.77.07-2.61-.85-4.99-2.5-7.38-3.83-2.52-1.36-4.01-3.86-5.65-6.11-2.79-4.11-6.12-7.67-7.49-12.55-.85-3.04-1.83-6.06-2.58-9.13-1.11-7.84-1.41-15.39 3.22-22.21 2.43-3.28 6.88-2.64 10.47-3.19-.59-3.61-2.13-6.51-3.95-9.62-2.3-3.88-.83-8.82-.66-13.15.12-3.64 1.04-7.8-1.24-10.95-2.47-3.99-4.97-7.86-6.5-12.33 2.57-.12 5.14-.22 7.71-.37-3.62-7.34-9.53-12.66-14-19.39 3.51-.15 7.03-.17 10.55-.21-2.79-4.06-5.71-8-8.45-12.09-2.64-3.89-6.07-6.93-9.2-10.39C15.59.6 20.59 1.04 25.73 0Z"/><path fill="#575757" d="M28.99 0h15.23c-.42 1.95-.75 3.92-1.07 5.9 5.76-1.45 11.51-2.53 17.44-2.94.28 1.98.54 3.97.82 5.96 4.28-.65 8.59-1.27 12.81-2.2-3.3 2.14-6.47 4.53-9.86 6.54-2.24 1.34-4.77 1.2-7.3 1.32-5.83.03-11.65.1-17.47.63 1.55 2.19 3.13 4.36 4.65 6.57-4.12-.24-8.24-.5-12.36-.63 2.88 3.27 5.9 6.41 8.8 9.67-4.66.44-9.79 1.04-14.4.05-1.23-1.55-2.03-3.55-2.85-5.34 2.98-.24 5.96-.47 8.93-.74-4.88-6.93-9.93-13.74-14.79-20.67 4.45-.36 8.92-.57 13.36-1.08-.49-.79-.99-1.57-1.49-2.36L28.99 0Z"/><path fill="#999" d="M44.22 0h38.85c-2.92 2.4-5.5 4.9-8.85 6.72-4.22.93-8.53 1.55-12.81 2.2-.28-1.99-.54-3.98-.82-5.96-5.93.41-11.68 1.49-17.44 2.94.32-1.98.65-3.95 1.07-5.9Z"/><path fill="#575757" d="M83.07 0h13.04c-1.55 1.14-2.99 2.39-4.44 3.64 2.82.44 5.64.82 8.47 1.17.23.53.46 1.05.68 1.58-8.83 1.26-17.12 4.38-26.09 4.97-.16-1.55-.32-3.1-.51-4.64C77.57 4.9 80.15 2.4 83.07 0ZM181.62 0h32.47c-4.35 4.97-6.78 11.8-8.56 18.07 4.99.54 9.97.96 14.94 1.7-2.98 3.22-7.02 5.81-9.45 9.44-1.17 4.49-.4 9.67-.11 14.27 2.45.32 4.89.67 7.34 1.03-1.53 5.41-4.35 10.06-7.71 14.52 1.83 1.09 3.66 2.18 5.47 3.29-2.3 3.68-4.98 6.96-6.65 11.01 1.83.75 3.69 1.46 5.49 2.3-1.26 1.75-2.95 3.29-3.97 5.19-.88 3.12-.68 6.6-.97 9.83-1.99 1.04-4.18 1.97-5.94 3.37-1.79 1.95-2.88 4.61-4.17 6.9.29-2.01.31-4.28 1.11-6.16 1.41-2.5 3.41-4.69 5.14-6.97-1.88-1.04-3.76-2.08-5.64-3.11.14-1.76.3-3.53.45-5.29-1.37-.88-2.75-1.75-4.12-2.62 3.1-4.02 6.11-6.91 10.26-9.82 1.99-1.3 2.45-3.12 3.1-5.26-4.22-1.06-8.47-1.94-12.75-2.72 2.86-3.81 5.74-7.59 8.85-11.2-3.44-2.06-6.92-4.04-10.45-5.94 1.85-4.63 4.41-8.81 7.36-12.82-6.73-.23-13.45-.08-20.18-.14 3.22-3.29 6.59-6.32 9.36-10.03-5.26 1.62-9.67 4.59-14.48 7.12 1.8-4.45 4.05-8.43 4.68-13.23.63-4.35-.02-8.48-.87-12.73Z"/><path fill="#30ade3" d="M217.7 0H250v250h-10.74c1.29-4.7 2.74-9.02 3.06-13.92.72-9.01-.08-18.07.31-27.11.03-7.88-4.97-11.62-8.86-17.65-1.7-2.25-2.6-4.67-5.2-5.96-3.48-2.28-7.52-3.01-11.16-4.83-2.44-2.66-3.72-6.56-5.27-9.79-1.99-6.68-.8-14.5-1.87-21.22-.33-3.07-4.12-3.16-6.39-4.26 2.5-1.96 4.83-4.06 6.83-6.54 2.42-3.03 5.66-5.31 7.35-8.71 3.39-6.68 6.39-14.41 6.23-22 .18-5.33-.39-10.32-3.6-14.74-1.74-1.93-3.94-3.03-6.26-4.1 0-2.43-.41-5.2.29-7.54 1.31-2.22 3.05-4.19 4.5-6.33-1.73-1.22-3.46-2.44-5.17-3.69 2.37-3.57 4.44-7.07 5.65-11.22-1.47-.78-2.93-1.57-4.41-2.34 2.24-4.92 4.02-9.99 6.57-14.77-2.44-.51-4.89-.98-7.34-1.46.04-3.9-.68-8.24.31-12.03 2.32-3.87 6-6.29 9.61-8.79-.21-.9-.41-1.8-.61-2.7-4.65-.94-9.3-1.6-14.03-1.94.44-3 .44-5.71 2.42-8.2 2.03-2.6 3.7-5.4 5.48-8.16Z"/><path fill="#fccebc" d="M168.02 32.65c.95 3.46 1.04 6.51.71 10.08-.65 6.28 2.96 10.74 4.74 16.67 1.66 5.65 3.89 11.31 4.72 17.14-4.04-1.39-7.66-3.56-11.54-5.24-4.72-.34-9.67.43-14.3 1.33-5.03 1.56-10.11 1.9-15.33 2.32-1.11 2.39-2.31 4.71-3.73 6.93-1.36 2.34-2.72 4.95-1.89 7.72 1.69 5.05 5.2 8.82 10.14 10.85-.55 1.42-1.65 3.17-.65 4.61 1.46 2.42 4.46 4.41 7.27 4.75 2.14.07 4.38-.82 6.45-1.34 2.37.13 4.73.16 7.11.07 3.39.84 6.28 1.1 9.65-.06.7-.18 1.39-.37 2.09-.55 1.32 4.04 2.84 7.98 4.9 11.72.92 1.99 2.66 4.59 1.98 6.85-1.06 4.3-3.05 8.31-4.08 12.64-1.89 7.78-4.06 15.6-6.97 23.07-1.69 4.66-7.21 7-10.73 10.4-4.94 4.7-10.19 9.06-14.97 13.92-1.71 1.57-3.1 3.18-5.59 3.34-5.96.52-12.01-.12-18 .06-4.6-.03-9.36.45-13.92-.15-2.29-.26-4.21-2.63-5.8-4.14-5.01-5.34-10.56-10.06-16.08-14.86-4.33-3.89-8.57-7.65-10.73-13.23-3.74-10.08-4.75-20.15-7.62-30.34-.42-2.08-1.26-4.4-.09-6.39 1.78-3.35 4-6.73 6.57-9.53 1.29-1.49 3.93-1.41 5.75-1.69 5.34-.13 10.67.17 16.01.13 3.18-.04 6.16-.78 8.29-3.3.96-1.57 1.02-3.77 1.37-5.56 2.03-1.73 4.34-3.29 5.38-5.84 1.64-4.04 1.81-8.75.92-12.99-.24-1.09-1.45-1.92-2.18-2.73-.69-1.64-1.38-3.29-2.07-4.93-3.62-.61-6.96-2.07-10.61-2.5-4.08-.5-8.16-1.09-12.25-1.5-4.96.06-9.57 3.65-13.82 5.85-.69-3.3-.99-6.5.43-9.68 1.12-2.57 3.18-4.09 5.49-5.53 6.66-.39 12.64-2.88 19.17-3.87 6.13-.94 11.98-3.62 17.84-5.63-2.9 1.93-5.75 3.91-8.7 5.77.24.75.48 1.5.71 2.25 5.95-3.14 12.47-2.24 18.52-4.94 5.28-1.66 10.26-3.97 15.66-5.22 3.36-.81 6.46-2.94 9.23-4.95 2.84-2.02 4.33-4.87 6.55-7.48 1.62-1.47 3.85-2.38 5.78-3.38 2.34-1.29 5.63-.79 8.22-.92Z"/><path fill="#fae7dd" d="M176.73 40.29c-.97 1.4-2.02 2.74-3.06 4.08 2.45.03 4.91.04 7.36.08-1.15 1.87-2.26 3.76-3.27 5.72 2.18.41 4.36.84 6.53 1.26.96 1.75 1.9 3.62 3.14 5.16 2.56 2.83 3.46 6.61 5.19 10.19-1.49 2.54-3.69 6.07-3.02 9.13 1.18 3.42 3.4 6.32 4.38 9.86-.97.43-1.94.88-2.89 1.35-.47.74-.94 1.5-1.39 2.26-1.05.01-2.1.04-3.15.06 1.28 1.45 2.95 2.94 3.74 4.72-.04 6.17-1.04 11.91-4.09 17.35 2.78-.04 5.55-.21 8.32-.36-.96 6.87-1.77 13.95-3.85 20.57-.69 2.63-1 5.3-1.22 8-1.46 1.96-2.67 4-3.76 6.19-1.61 2.88-3.13 5.72-3.75 9-1.38 5.43-.73 10.43-3.89 15.08-1.91 2.1-4.09 4.01-6.47 5.57-2.71 1.84-5.05 4.47-7.96 5.83-3.5 1.63-6.92 3.8-9.9 6.26-3.67 3.51-7.9 6.21-12.16 8.94-6.12.59-12.4.07-18.56.24-7.1-.21-14.41.48-21.44-.44-4.26-2.74-7.81-6.14-11.36-9.7-6.21-3.29-11.28-7.82-16.75-12.14-2.91-2.1-5.62-4.32-7.75-7.23-1.04-2.04-1.5-4.28-2.66-6.29-2.58-4.18-2.42-8.5-4.27-13.11-2.27-5.59-2.13-11.61-4.58-17.17-1.24-6.52-3.6-12.6-4.15-19.23 2.62-.04 5.23-.03 7.85-.04-.82-4.1-2.18-8.25-2.43-12.43.31-2.14 1.16-4.23 1.79-6.3-.93-.23-1.87-.45-2.8-.68.81-.7 1.63-1.4 2.42-2.13l-.73-.94c-.94-1.18-1.91-2.33-2.93-3.45.91-3.94 4.13-7.03 3.53-11.17-.9-2.21-3-4-3.62-6.28.6-2.34 2-4.61 3.07-6.79 6.26-.05 12.63.41 18.85-.29-2.31 1.44-4.37 2.96-5.49 5.53-1.42 3.18-1.12 6.38-.43 9.68.6.66 1.2 1.31 1.82 1.95-.9.35-1.79.72-2.67 1.1.24 2.44.5 4.87.62 7.32-.15 1.05-.33 2.1-.54 3.15-.24 1.05-.5 2.09-.75 3.14-.53 2.16-1.09 4.27-1.03 6.52.83 2.18 1.78 4.82 3.54 6.42 2.2 1.88 5.2 3 7.97 3.77-1.82.28-4.46.2-5.75 1.69-2.57 2.8-4.79 6.18-6.57 9.53-1.17 1.99-.33 4.31.09 6.39 2.87 10.19 3.88 20.26 7.62 30.34 2.16 5.58 6.4 9.34 10.73 13.23 5.52 4.8 11.07 9.52 16.08 14.86 1.59 1.51 3.51 3.88 5.8 4.14 4.56.6 9.32.12 13.92.15 5.99-.18 12.04.46 18-.06 2.49-.16 3.88-1.77 5.59-3.34 4.78-4.86 10.03-9.22 14.97-13.92 3.52-3.4 9.04-5.74 10.73-10.4 2.91-7.47 5.08-15.29 6.97-23.07 1.03-4.33 3.02-8.34 4.08-12.64.68-2.26-1.06-4.86-1.98-6.85-2.06-3.74-3.58-7.68-4.9-11.72-.7.18-1.39.37-2.09.55 2.77-2.3 5.27-4.52 6.17-8.14.34-1.93.42-3.88.4-5.84l-.09-1.71-.14-2.22c-.51-4.27.59-8.33.51-12.58l-.03-1.45c-.83-5.83-3.06-11.49-4.72-17.14-1.78-5.93-5.39-10.39-4.74-16.67 2.77-.51 5.36-1.49 8-2.44Z"/><path fill="#575757" d="M28.17 46.06c1.14 0 2.28.04 3.42.12 1.39 3.02 2.55 6.22 3.67 9.35 2.13.87 4.46 1.62 6.4 2.87 1.52 1.39 2.48 3.49 3.52 5.24-2.9.79-5.82 1.52-8.75 2.22 1.08 2.09 2.51 4.42 2.82 6.77-.78 1.16-1.72 2.23-2.61 3.3A454.7 454.7 0 0 1 42.21 82c-.82.94-1.64 1.87-2.46 2.81-.76-.08-1.53-.16-2.29-.25-1.48-3.17-3.46-6.43-4.17-9.87-.47-4.98 2.64-11.16.99-16.17-1.66-4.29-4.53-8.1-6.11-12.46Z"/><path d="M82.94 70.38c4.09.41 8.17 1 12.25 1.5 3.65.43 6.99 1.89 10.61 2.5.69 1.64 1.38 3.29 2.07 4.93.32.81.64 1.61.96 2.42-7.75-.67-15.07-3.09-22.86-3.2-4.94-.17-10.15-.96-15.03-.35-.62-.64-1.22-1.29-1.82-1.95 4.25-2.2 8.86-5.79 13.82-5.85ZM166.65 71.3c3.88 1.68 7.5 3.85 11.54 5.24l.03 1.45c-.2.8-.4 1.61-.61 2.41-5.87-.02-11.74.25-17.61.21-8.93-.05-17.78 1.17-26.71 1.27 1.42-2.22 2.62-4.54 3.73-6.93 5.22-.42 10.3-.76 15.33-2.32 4.63-.9 9.58-1.67 14.3-1.33Z"/><path fill="#d99d8d" d="M70.94 78.18c4.88-.61 10.09.18 15.03.35 7.79.11 15.11 2.53 22.86 3.2-.32-.81-.64-1.61-.96-2.42.73.81 1.94 1.64 2.18 2.73.89 4.24.72 8.95-.92 12.99-1.04 2.55-3.35 4.11-5.38 5.84-.85-.52-1.69-1.04-2.53-1.56.55-.4 1.1-.81 1.65-1.21-1.62-1.32-3.11-2.97-4.93-3.99-2.58-1.16-5.56-1.59-8.32-2.15 1.18-.84 2.37-1.67 3.56-2.5 2.1.55 4.17 1.18 6.25 1.8-2.03-2.03-3.39-4.44-6.43-4.88-7.79-1.68-16.29-1.08-24.11.22-.12-2.45-.38-4.88-.62-7.32.88-.38 1.77-.75 2.67-1.1ZM178.22 77.99c.08 4.25-1.02 8.31-.51 12.58-1.69-1.94-2.78-5.22-5.84-4.99-4.3-.25-8.64-.16-12.95-.09-5.69-.27-10.46 4.15-15.16 7.04 1.13.32 2.26.62 3.4.91-2.81 1-3.48 3.16-4.81 5.57l-.81 1.44c-4.94-2.03-8.45-5.8-10.14-10.85-.83-2.77.53-5.38 1.89-7.72 8.93-.1 17.78-1.32 26.71-1.27 5.87.04 11.74-.23 17.61-.21.21-.8.41-1.61.61-2.41Z"/><path d="M93 86.38c3.04.44 4.4 2.85 6.43 4.88-2.08-.62-4.15-1.25-6.25-1.8-4.83-1.17-10.14-3.37-15.14-2.59-3.33.71-6.27 2.43-9.69 2.88.21-1.05.39-2.1.54-3.15 7.82-1.3 16.32-1.9 24.11-.22ZM158.92 85.49c4.31-.07 8.65-.16 12.95.09 3.06-.23 4.15 3.05 5.84 4.99l.14 2.22c-1.96-1.9-3.7-4.43-6.07-5.82-5.21-.5-11.4-.83-16.22 1.52-3.91 1.53-7.69 3.14-11.8 4.04 4.7-2.89 9.47-7.31 15.16-7.04Z"/><path fill="#575757" d="M39.11 86.01c3.67 4.26 6.88 8.49 6.81 14.41-3.12-4.67-6.43-8.55-6.81-14.41Z"/><path fill="#999" d="M53.21 85.55c1.02 1.12 1.99 2.27 2.93 3.45-.99-.19-1.97-.37-2.96-.54 0-.97.01-1.94.03-2.91Z"/><path fill="#d99d8d" d="M191.09 87.12c.95-.47 1.92-.92 2.89-1.35.21 1.15.41 2.31.59 3.46-1.62.07-3.25.12-4.87.15.45-.76.92-1.52 1.39-2.26ZM78.04 86.87c5-.78 10.31 1.42 15.14 2.59-1.19.83-2.38 1.66-3.56 2.5-3.92-.66-7.63-1.61-11.64-1.46-3.75-.05-6.9 1.22-10.38 2.39.25-1.05.51-2.09.75-3.14 3.42-.45 6.36-2.17 9.69-2.88ZM171.78 86.97c2.37 1.39 4.11 3.92 6.07 5.82l.09 1.71c-2.32-1.48-4.44-2.99-7.17-3.63-8.55-1.45-15.37 1.19-23.61 2.57-1.14-.29-2.27-.59-3.4-.91 4.11-.9 7.89-2.51 11.8-4.04 4.82-2.35 11.01-2.02 16.22-1.52Z"/><path d="M77.98 90.5c4.01-.15 7.72.8 11.64 1.46 2.76.56 5.74.99 8.32 2.15 1.82 1.02 3.31 2.67 4.93 3.99-.55.4-1.1.81-1.65 1.21-1.56-1.01-3.1-2.02-4.71-2.94-.44 3.94-.88 7.35-3.83 10.24-2.56 1.6-5.44 3.34-8.59 2.77-2.55-.9-5.4-2.35-7.59-3.95-1.97-3.36-1.31-6.56-1-10.23-3.76.75-6.37 1.03-8.93 4.21-.06-2.25.5-4.36 1.03-6.52 3.48-1.17 6.63-2.44 10.38-2.39ZM170.77 90.87c2.73.64 4.85 2.15 7.17 3.63.02 1.96-.06 3.91-.4 5.84-1.5-2.06-2.54-3.74-5.01-4.68-.95-.54-1.9-1.09-2.85-1.62-.83.85-1.61 1.73-2.38 2.63-2.47-1.23-4.87-2.13-7.65-2.35-.02 1.56-.04 3.11.03 4.67l1.89 1.13a87.27 87.27 0 0 1-3.71 3.22 301.4 301.4 0 0 0-2.03-2.91c.58-1.65 1.16-3.31 1.72-4.97-2.24.33-4.63.58-6.78 1.32-.81 1.93-1.21 4.11-1.48 6.19-.35-2.21-.52-4.42-.73-6.64-2.1.82-4.16 1.74-6.21 2.68 1.33-2.41 2-4.57 4.81-5.57 8.24-1.38 15.06-4.02 23.61-2.57Z"/><path fill="#fae7dd" d="M29.16 93.63c5.51-1.06 9.99 1.89 13.3 5.99 1.23 3.28 1.33 6.9 2.6 10.21 2.22 7.68 4.78 15.08 5.36 23.13-3.45-.65-6.19-2.72-6.93-6.25-.8-3.24 1.68-5.96 3.14-8.58-1.84-4.3-2.93-8.82-4.59-13.17-2.25-4.92-6.58-5.8-10.95-8.29-1.46 2.06-3.09 3.69-3.31 6.33-.28 3.46-.23 6.79 2.4 9.36-.7 3.93.01 7.67 1.25 11.41 1.64 4.96 5.45 9.98 10.59 11.63 3.67.43 6.98-.8 10.58.63.05 2.21.15 4.41.24 6.61-2.15.25-4.41.95-6.5.22-3.18-.67-5.44-4.24-7.99-6.15-6.56-4.79-9.79-13.35-12.11-20.84-.75-4.25-.9-8.67-.56-12.97.09-3.25 2.13-6.32 3.48-9.27Z"/><path fill="#fdfefe" d="m167.3 96.67-2.13 2.52-.36-3.31c-1.24-.12-2.49-.23-3.73-.32-.49 1.14-.95 2.28-1.4 3.43-.07-1.56-.05-3.11-.03-4.67 2.78.22 5.18 1.12 7.65 2.35Z"/><path d="M169.68 94.04c.95.53 1.9 1.08 2.85 1.62-1.32-.1-2.64-.19-3.97-.28.14 3.82.7 7.25-1.37 10.69-1.71 1.02-3.63 1.73-5.47 2.47-2.38.09-4.74.06-7.11-.07-2.59-1.5-4.76-2.25-5.32-5.5.27-2.08.67-4.26 1.48-6.19 2.15-.74 4.54-.99 6.78-1.32-.56 1.66-1.14 3.32-1.72 4.97-2.13-.05-4.07-.28-5.75 1.33 1.11 5.64 8.6 7.1 13.15 4.85 2.99-1.09 3.71-3.53 4.89-6.18-1.18-.23-2.35-.44-3.53-.62l.58-.62 2.13-2.52c.77-.9 1.55-1.78 2.38-2.63Z"/><path fill="#fae7dd" d="M208.49 94.3c2.41-1.43 6.09-.64 8.8-.7.49 1.69 1 3.37 1.38 5.08l-.23 1.78c-1.18-1.1-2.3-2.3-3.6-3.26-2.96-.32-5.94 1.69-7.97 3.66-3.67 4.74-6.33 11.38-7.13 17.31.3 2.36 2.55 4.54 3.28 6.85-.83 2.61-2.52 5.07-4.15 7.25-1.46.23-2.93.4-4.42.51 1.69-5.82 1.91-11.92 4.01-17.58 1.31-4.82 4.09-8.92 5-13.88.55-3.14 2.78-4.99 5.03-7.02Z"/><path fill="#fdfefe" d="M75.5 95.2c-.31 3.67-.97 6.87 1 10.23 2.19 1.6 5.04 3.05 7.59 3.95 3.15.57 6.03-1.17 8.59-2.77 2.95-2.89 3.39-6.3 3.83-10.24 1.61.92 3.15 1.93 4.71 2.94.84.52 1.68 1.04 2.53 1.56-.35 1.79-.41 3.99-1.37 5.56-2.13 2.52-5.11 3.26-8.29 3.3-5.34.04-10.67-.26-16.01-.13-2.77-.77-5.77-1.89-7.97-3.77-1.76-1.6-2.71-4.24-3.54-6.42 2.56-3.18 5.17-3.46 8.93-4.21Z"/><path fill="#fdfefe" d="M85.63 95.46c2.47.05 5.1-.01 7.52.45.74 2.48-.24 2.64-1.98 3.92l-1.5.43c-1.32-.37-2.64-.75-3.96-1.13-.03-1.22-.05-2.45-.08-3.67Z"/><path fill="#fae7dd" d="M161.08 95.56c1.24.09 2.49.2 3.73.32l.36 3.31-.58.62c-1.01.11-2.01.22-3.02.31l-1.89-1.13c.45-1.15.91-2.29 1.4-3.43Z"/><path fill="#fdfefe" d="M168.56 95.38c1.33.09 2.65.18 3.97.28 2.47.94 3.51 2.62 5.01 4.68-.9 3.62-3.4 5.84-6.17 8.14-3.37 1.16-6.26.9-9.65.06 1.84-.74 3.76-1.45 5.47-2.47 2.07-3.44 1.51-6.87 1.37-10.69ZM148.56 96.33c.21 2.22.38 4.43.73 6.64.56 3.25 2.73 4 5.32 5.5-2.07.52-4.31 1.41-6.45 1.34-2.81-.34-5.81-2.33-7.27-4.75-1-1.44.1-3.19.65-4.61l.81-1.44c2.05-.94 4.11-1.86 6.21-2.68Z"/><path fill="#fae7dd" d="M218.67 98.68c.65 3.14 2.38 6.88 1.53 10.03-1.24 5.03-1.16 9.77-2.78 14.72-1.27 2.83-3.01 5.52-5.27 7.66-3.31 3.37-6.03 7.44-9.65 10.49-2.9 1.98-5.84 1.7-9.16 1.42.05-2.62.21-5.22.47-7.83 3.82-.22 8.26 1.07 11.88-.16 3.23-3.18 6.51-7.64 8.85-11.53.82-2.19 1.62-4.45 2.03-6.76.32-1.69-.63-3.64-1.07-5.26l2.31-.21c.52-3.59.48-7.18.63-10.79l.23-1.78Z"/><path fill="#fccebc" d="M30.73 99.36c3.94.51 5.21 2.53 7.56 5.27-2.03.93-4.03 1.89-5.95 3.01 2.49-.16 4.95-.71 7.44-.78 2.01 1.16 2.45 4.24 3.25 6.26-2.48 1.77-5.49 3.5-7.32 5.99-.45 2.38-.28 4.84-.12 7.24a55.44 55.44 0 0 0-4.16-2.58c-1.24-3.74-1.95-7.48-1.25-11.41.6-4.31-.05-8.66.55-13Z"/><path fill="#a6685d" d="M84.87 102.62c1.66-.63 3.21-1.58 4.8-2.36l1.5-.43c.96.78 1.93 1.55 2.89 2.33-1.28 1.95-2.02 4-4.33 4.93-2.05.79-4.5.7-6.65.41-3.38-.69-6.11-3.84-7.58-6.8 3.81-2.74 5.85.77 9.37 1.92ZM155.83 100.43c.68.96 1.36 1.94 2.03 2.91a87.27 87.27 0 0 0 3.71-3.22c1.01-.09 2.01-.2 3.02-.31 1.18.18 2.35.39 3.53.62-1.18 2.65-1.9 5.09-4.89 6.18-4.55 2.25-12.04.79-13.15-4.85 1.68-1.61 3.62-1.38 5.75-1.33Z"/><path fill="#fccebc" d="M216.51 102.42c.79 3.3-.63 5.81-1.01 9.04.44 1.62 1.39 3.57 1.07 5.26-.41 2.31-1.21 4.57-2.03 6.76-2.87.63-4.38 2.2-6.21 4.3.68-1.67 1.45-3.14 1.44-5 .52-4.09-3.84-7.1-6.08-10.02-.5-1.96 1.41-4.22 2.22-5.93 2.09.23 4.18.45 6.28.5-1.69-.99-3.46-1.82-5.23-2.67 1.07-1.47 2.2-3.09 3.61-4.24 1.9-1.49 5.84-.83 5.94 2Z"/><path fill="#d99d8d" d="M43.9 115.57c-.48 3.22-1.58 6.28-2.17 9.48-.13 3.13 2.12 6.57 3.88 9.06-1.7-.55-3.4-1.1-5.11-1.63-.67-3.66-2.44-7.74-1.91-11.44.61-3.11 2.88-4.01 5.31-5.47ZM203.95 116.26c1.37 1.11 2.71 2.05 3.16 3.87.77 3.94-.72 8.52-1.39 12.44-1.85.49-3.71.97-5.57 1.45 1.83-2.59 4.4-5.64 4.41-8.97-.24-2.94-1.89-5.95-3.21-8.54.87-.09 1.74-.18 2.6-.25ZM113.04 131.99c5.83-.61 11.85-.07 17.7.21-.04 1.12-.07 2.25-.1 3.37-1.96-.74-3.87-1.57-5.8-2.36 1.95 1.9 3.95 3.75 5.77 5.79-3.49 1.87-7.15 4.35-11.31 3.69-3.62-.67-7.52-1.92-9.03-5.64.23.35.47.7.7 1.05 2.39-1.63 4.87-3.11 7.2-4.84-2.81.92-5.56 1.97-8.28 3.12-.81.09-1.62.18-2.43.26 1.49-1.63 3.14-4.63 5.58-4.65Z"/><path d="M118.17 133.26c-2.33 1.73-4.81 3.21-7.2 4.84-.23-.35-.47-.7-.7-1.05l-.38-.67c2.72-1.15 5.47-2.2 8.28-3.12ZM124.84 133.21c1.93.79 3.84 1.62 5.8 2.36-.03 1.14-.04 2.29-.03 3.43-1.82-2.04-3.82-3.89-5.77-5.79Z"/><path fill="#a6685d" d="M189.45 139.72c-.08 1.07-.2 2.14-.35 3.21-1.12 1.01-2.28 1.97-3.41 2.98 1.09-2.19 2.3-4.23 3.76-6.19Z"/><path fill="#fccebc" d="M197.04 148.71c.52.79 1.03 1.59 1.55 2.39-3.49.2-6.47-.54-8.37 3.11-2.44 4.26-.45 8.92 4.49 9.55 2.36-1.46 3.49-4.32 4.73-6.68-2.25-.34-4.5-.63-6.75-.95 1.46.83 2.96 1.66 4.3 2.67-.57 1.02-1.17 2.02-1.8 3-1.86-.93-3.71-1.87-5.57-2.81 1.11-1.99 2.22-4.2 3.73-5.9 2.35-.39 5.04.21 6.21 2.48 1.85 3.45.19 8.08-.63 11.64-2.87-.47-5.74-.95-8.59-1.48-.48.43-.95.86-1.43 1.29 3.72.79 7.23 1.09 11.03 1 .72-4.11 1.19-8.19 1.46-12.35 3 5.79.32 11.7 2.37 17.69.55 1.6 1.3 3.19 2.01 4.73-6.48-.12-12.75-.15-19.08-1.82a52.21 52.21 0 0 1-2.75-4.3c-2.03-2.85-1.47-7.32-.5-10.47 1.43-3.86 2.34-7.82 3.3-11.81 3.42-.77 6.79-1.06 10.29-.98Z"/><path fill="#fae7dd" d="M197.04 148.71c3.26.04 6.48.45 9.72.85.96 5.19.76 10.25.92 15.49-.06 5.04 2.37 10.06 3.54 15.03-1.77-.77-3.58-1.45-5.44-1.99-.71-1.54-1.46-3.13-2.01-4.73-2.05-5.99.63-11.9-2.37-17.69-.9-1.55-1.86-3.06-2.81-4.57-.52-.8-1.03-1.6-1.55-2.39Z"/><path fill="#d99d8d" d="M198.59 151.1c.95 1.51 1.91 3.02 2.81 4.57-.27 4.16-.74 8.24-1.46 12.35-3.8.09-7.31-.21-11.03-1 .48-.43.95-.86 1.43-1.29 2.85.53 5.72 1.01 8.59 1.48.82-3.56 2.48-8.19.63-11.64-1.17-2.27-3.86-2.87-6.21-2.48-1.51 1.7-2.62 3.91-3.73 5.9 1.86.94 3.71 1.88 5.57 2.81.63-.98 1.23-1.98 1.8-3-1.34-1.01-2.84-1.84-4.3-2.67 2.25.32 4.5.61 6.75.95-1.24 2.36-2.37 5.22-4.73 6.68-4.94-.63-6.93-5.29-4.49-9.55 1.9-3.65 4.88-2.91 8.37-3.11Z"/><path d="M113.03 156.75c10.09.04 20.58.41 30.52-.95 2.02-.28 3.91-.1 5.88.38-3.15 1.09-6.36 1.49-9.67 1.64-4.01.14-7.86.77-11.79 1.51-7.53.41-14.96.43-22.36-1.21-3.02-.63-6.05-1.16-8.99-2.15 5.72-.98 10.58.81 16.41.78Z"/><path fill="#fccebc" d="M105.61 158.12c7.4 1.64 14.83 1.62 22.36 1.21 3.93-.74 7.78-1.37 11.79-1.51l.45 2.11c-1.45 0-2.9.02-4.35.06-7.64.21-15.29.24-22.93.29-2.76.13-4.95-.94-7.32-2.16Z"/><path fill="#fae7dd" d="M135.86 159.99c1.45-.04 2.9-.06 4.35-.06.99.13 1.97.27 2.96.41-.75 1.11-1.36 2.62-2.45 3.42-1.27.54-2.67.86-4 1.22-.29-1.66-.58-3.33-.86-4.99Z"/><path d="M110.02 167.88c6.51-.6 13.15-.46 19.67-.13l-.46 1.16c-6.04.48-12.43.56-18.46-.1l-.75-.93Z"/><path fill="#d99d8d" d="M110.77 168.81c6.03.66 12.42.58 18.46.1-.59 1.48-1.12 3.1-1.99 4.44-2.93 1.49-6.67 1.65-9.87 1.09-2.9-.51-4.83-3.52-6.6-5.63Z"/><path fill="#30ade3" d="M180.94 173.5c2.43 3.48 4.91 6.4 5.12 10.86-5.93-.03-11.86-.05-17.79.02.04-.67.09-1.34.13-2.01 4.3-2.85 8.03-6.33 12.54-8.87Z"/><path fill="#d99d8d" d="M186.7 176.27c6.33 1.67 12.6 1.7 19.08 1.82 1.86.54 3.67 1.22 5.44 1.99l.27.82c-6.25-.47-12.29.44-18.49.76-2.44-.42-4.57-3.7-6.3-5.39Z"/><path fill="#fccebc" d="M207.7 184.32c3.89.85 7.76 1.64 10.97 4.12 2.7 2.07 5.43 3.91 8.41 5.56 1.75 1.12 3.98 2.19 4.39 4.45.63 4.37-2.63 9.07-2.39 13.4.89 4.68 4.31 8.97 4.97 13.66.05 2.91-1.21 5.91-1.76 8.76-1.28 5.3-.11 10.45.67 15.73h-30.12c.01-2.35.01-4.71 0-7.06-2.67-.28-5.37-.59-8.05-.72 9.71.15 19.39.17 29.1.31l.52-1.79c-.34-1.65-.82-3.29-1.27-4.91-9.25-.3-18.53-.07-27.79.1-1.67-6.09-4.69-11.53-6.66-17.52 10.31-2.47 21.82.45 32.17-2.38-.05-1.29-.11-2.59-.18-3.89l-.07-.92c-8.14-.04-16.25.31-24.39-.18-4.05-1.62-10.59-2.81-11.68-7.74-1.51-4.24-1.84-9.04-2.77-13.46 1.97-1.37 3.86-3.27 6.32-3.48 6.46-.89 13.08-2.18 19.61-2.04Z"/><path fill="#fae7dd" d="M207.7 184.32c5.49-.05 11.51-.22 16.58 2.36 5.54 4.56 11.68 10.96 12.53 18.42-.49 7.43-.71 14.78-.34 22.21l2.91.81c-.33 3.31-1.37 6.39-2.18 9.59-.89 4.08-1.34 8.24-2.41 12.29h-1.83c-.78-5.28-1.95-10.43-.67-15.73.55-2.85 1.81-5.85 1.76-8.76-.66-4.69-4.08-8.98-4.97-13.66-.24-4.33 3.02-9.03 2.39-13.4-.41-2.26-2.64-3.33-4.39-4.45-2.98-1.65-5.71-3.49-8.41-5.56-3.21-2.48-7.08-3.27-10.97-4.12Z"/><path fill="#fdfefe" d="M160.76 188.03c-.06 4.01-1.93 6.27-4.24 9.28-.29-1.88-.58-3.75-.86-5.63 1.71-1.2 3.4-2.43 5.1-3.65Z"/><path fill="#01aaa9" d="M60.95 189.3c7.75.06 15.51-.07 23.25.16.29 1.05.59 2.1.9 3.15l-.88.02c-7.99-.3-16.1-.61-24.08-.08-3.64.26-6.81 1.59-9.22 4.38-4.11 4.78-6.92 11.56-7.3 17.84-.21 11.73-.21 23.49-.33 35.23h-3.64c.08-13.4-.2-26.81.12-40.2 1.28-8.04 5.44-15.36 12.74-19.31 2.47-1.23 5.74-1.14 8.44-1.19Z"/><path fill="#285481" d="M165.63 189.25c4.25-.2 8.53-.02 12.78.14-.75 1.69-1.52 3.36-2.34 5.02l.16-2.07c.1-.96.2-1.93.31-2.89-3.76.07-7.4.08-11.12.71l.21-.91Z"/><path fill="#01aaa9" d="M165.42 190.16c3.72-.63 7.36-.64 11.12-.71-.11.96-.21 1.93-.31 2.89-3.76-.08-7.53-.08-11.29.1l.48-2.28Z"/><path fill="#d99d8d" d="M181.77 189.84c.93 4.42 1.26 9.22 2.77 13.46 1.09 4.93 7.63 6.12 11.68 7.74-3.86.1-7.72.3-11.59.35-1.42-2.18-2.48-4.45-2.99-7.03-.97-4.88-2.1-9.8.13-14.52Z"/><path fill="#fdfefe" d="M60.14 192.55c7.98-.53 16.09-.22 24.08.08-2.09.2-4.2.49-6.28.77.39 1.97.78 3.95 1.18 5.93 2.95-.22 5.18-.68 7.69-2.33.82.85 1.66 1.68 2.47 2.55-1.35.01-2.69.05-4.04.1-8.19.45-16.76-.61-24.84.74-4.22 4.22-7.42 10.5-7.4 16.57-.1 1.63-.15 3.26-.23 4.89-.63 1.31-1.31 2.59-1.98 3.88-2.25-.64-4.49-1.26-6.74-1.87-.23-3.04-.44-6.05-.43-9.09.38-6.28 3.19-13.06 7.3-17.84 2.41-2.79 5.58-4.12 9.22-4.38Z"/><path fill="#008280" d="M155.66 191.68c.28 1.88.57 3.75.86 5.63-2.79 3.58-6.3 6.24-10.01 8.8.03-2.74-.21-5.67.39-8.36 2.31-2.54 5.89-4.21 8.76-6.07Z"/><path fill="#fdfefe" d="M164.94 192.44c3.76-.18 7.53-.18 11.29-.1l-.16 2.07c-.03 1.68.06 3.34.29 5-3.87.11-7.73.13-11.6.1-1.72-.06-3.43-.1-5.15-.09 1.46-2.71 2.82-5.09 5.33-6.98Z"/><path fill="#fae7dd" d="M77.94 193.4c2.08-.28 4.19-.57 6.28-.77l.88-.02c.49 1.49 1.04 2.96 1.71 4.39-2.51 1.65-4.74 2.11-7.69 2.33-.4-1.98-.79-3.96-1.18-5.93Z"/><path fill="#fdfefe" d="M90.24 192.78c.85.52 1.68 1.06 2.49 1.64-.36.63-.72 1.27-1.07 1.92a51.72 51.72 0 0 1-1.42-3.56Z"/><path fill="#008280" d="M92.73 194.42c3.18 2.45 6.72 4.55 9.7 7.24.32 1.81.28 3.72.33 5.57-5.08-2.6-8.37-5.89-11.1-10.89.35-.65.71-1.29 1.07-1.92ZM89.28 199.55c1.32 1.44 2.47 3.04 3.76 4.51 2.38 2.91 6.27 4.81 9.5 6.67.44 13.09-.4 26.17 0 39.27H67.7c-1.03-4.73-1.95-9.39-4.03-13.81-2.25-4.76-3.77-11.07-1.5-16.05 5.13-8.3 13.82-10.36 22.35-13.56-2.42-1.15-4.71-1.98-6.47-4.09 2.3-1.19 4.71-2.08 7.19-2.84 1.35-.05 2.69-.09 4.04-.1Z"/><path fill="#d99d8d" d="M212.13 198.99c5.34.4 10.78 1.45 16.04 2.42a63.68 63.68 0 0 1-.51 3.37c-.11 2.17-2.45 3.64-4.01 4.89l-1.18-.9c.53-.25 1.05-.51 1.58-.77-2.15-1.31-4.26-2.67-6.43-3.96-.5-.28-1-.57-1.5-.86a71.622 71.622 0 0 1-3.99-4.19Z"/><path fill="#01aaa9" d="M60.4 200.39c8.08-1.35 16.65-.29 24.84-.74-2.48.76-4.89 1.65-7.19 2.84 1.76 2.11 4.05 2.94 6.47 4.09-8.53 3.2-17.22 5.26-22.35 13.56-2.27 4.98-.75 11.29 1.5 16.05 2.08 4.42 3 9.08 4.03 13.81h-6.15c-.43-6.87-.67-13.84-1.78-20.63-.9-.21-1.81-.41-2.73-.59-1.46-.28-2.92-.55-4.38-.82.02-2.04.05-4.07.11-6.11.08-1.63.13-3.26.23-4.89-.02-6.07 3.18-12.35 7.4-16.57Z"/><path fill="#fccebc" d="M106.04 200.54c12.39-.51 25.22 1.17 37.53-.5-.06 1.93 0 3.93-.34 5.83-1.49 2.32-3.63 1.27-5.97 1.56-5.26.09-9.94 2.36-15.24 2.1-3.96.2-7.68-.59-11.48-1.56-.92 1.56-1.88 3.1-2.88 4.6-1.22-4.05-2.43-7.75-1.62-12.03Z"/><path fill="#008280" d="M159.61 199.42c1.72-.01 3.43.03 5.15.09 2.11.76 4.2 1.62 6.28 2.47.12.43.23.86.34 1.28-1.11.85-2.23 1.7-3.34 2.55 3.84 2.53 6.91 4.26 11.7 3.32 1.13 2.41 2.58 4.77 3.39 7.3.16 2.83-.84 5.72-.87 8.58-.25 3.27.68 6.22 1.74 9.25-2.83 4.95-3.09 10.19-3.39 15.74h-34.24c-.26-8.67-.19-17.33-.31-26-.02-4.66-.85-9.92.4-14.44 1.72-1.67 4.09-2.74 6.09-4.08 2.68-1.69 4.8-3.87 7.06-6.06Z"/><path fill="#01aaa9" d="M164.76 199.51c3.87.03 7.73.01 11.6-.1 1.17 3.23 2.15 6.52 3.38 9.72-4.79.94-7.86-.79-11.7-3.32 1.11-.85 2.23-1.7 3.34-2.55-.11-.42-.22-.85-.34-1.28-2.08-.85-4.17-1.71-6.28-2.47Z"/><path d="M217.62 204.04c2.17 1.29 4.28 2.65 6.43 3.96-.53.26-1.05.52-1.58.77-2.28-1.71-4.43-3.48-6.35-5.59.5.29 1 .58 1.5.86Z"/><path fill="#d99d8d" d="M236.81 205.1c.86 1.31 1.82 2.66 2.45 4.09-.28 4.05-3.52 8.5-2 12.4.63 2.2 1.49 4.33 2.12 6.53l-2.91-.81c-.37-7.43-.15-14.78.34-22.21Z"/><path fill="#575757" d="M236.81 205.1c.87.5 1.73 1.01 2.59 1.53.58 5.37.15 10.95.28 16.37.02 3.61.33 7.3-.05 10.9-.13 1.74-1.39 2.56-2.43 3.81.81-3.2 1.85-6.28 2.18-9.59-.63-2.2-1.49-4.33-2.12-6.53-1.52-3.9 1.72-8.35 2-12.4-.63-1.43-1.59-2.78-2.45-4.09Z"/><path fill="#008280" d="M39.77 209.8c-.32 13.39-.04 26.8-.12 40.2h-3.13c.07-8.01-.05-16.03-.03-24.04-.03-5.75 2.51-10.45 3.28-16.16Z"/><path fill="#285481" d="M142.3 210.74c.03 3.37-.1 6.7-.37 10.05-1.84.14-3.68.28-5.51.5-.09 1.46-.13 2.92-.17 4.38 1.85.03 3.69.06 5.54.1v2.92c-1.84.01-3.68.04-5.51.09.06 1.83.13 3.66.19 5.49 1.76.18 3.52.34 5.26.66l.1 1.14c-1.81.17-3.62.28-5.42.48-.1 2.11-.1 4.23-.13 6.34 2-.02 3.99-.07 5.99-.11.01.95.02 1.91.02 2.86-1.92.16-3.83.32-5.74.58-.16 1.26-.3 2.52-.44 3.78h-26.15c-.91-1.29-2.04-1.76-3.4-1.4.01-.79.01-1.59 0-2.38 1.1-.13 2.2-.27 3.29-.41-.04-1.73-.08-3.46-.11-5.19-1.05-.19-2.11-.38-3.17-.57v-2.88c1.03-.32 2.07-.64 3.11-.96.06-1.41.13-2.83.19-4.24-1.11.04-2.23.1-3.34.17 0-1.04.01-2.08.03-3.11 1.07-.12 2.14-.24 3.21-.35.02-1.47.05-2.94.08-4.41-1.05-.13-2.1-.27-3.15-.4l.03-2.7c1.02-.08 2.05-.17 3.08-.25-.03-2.08-.07-4.16-.09-6.24 6.11-.58 12.23.13 18.32-.25 2.8-.19 5.27-1.77 7.82-2.85.23 2.15.41 4.31.57 6.46 1.35.06 2.69.11 4.03.15.07-2.26.12-4.53.15-6.79-1.58.04-3.17.1-4.75.18 2.14-.41 4.27-.62 6.44-.84Z"/><path fill="#a6685d" d="M184.63 211.39c3.87-.05 7.73-.25 11.59-.35 8.14.49 16.25.14 24.39.18l.07.92c-1.82-.08-3.64-.18-5.47-.25-6.32-.02-13.46-.97-19.55.8-3.07.87-6.06 1.44-9.24 1.75-.59-1.03-1.18-2.04-1.79-3.05Z"/><path fill="#fae7dd" d="M135.86 211.58c1.58-.08 3.17-.14 4.75-.18-.03 2.26-.08 4.53-.15 6.79-1.34-.04-2.68-.09-4.03-.15-.16-2.15-.34-4.31-.57-6.46Z"/><path fill="#575757" d="M195.66 212.69c6.09-1.77 13.23-.82 19.55-.8-.62.86-1.24 1.71-1.86 2.57-8.98-.01-17.96.22-26.93-.02 3.18-.31 6.17-.88 9.24-1.75Z"/><path fill="#fae7dd" d="M43.62 214.77c-.01 3.04.2 6.05.43 9.09 2.25.61 4.49 1.23 6.74 1.87.67-1.29 1.35-2.57 1.98-3.88-.06 2.04-.09 4.07-.11 6.11-.12 7.35-.33 14.69-.21 22.04h-9.16c.12-11.74.12-23.5.33-35.23Z"/><path fill="#fdfefe" d="M106.82 215.31c.97-.23 1.93-.44 2.9-.63.02 2.08.06 4.16.09 6.24-1.03.08-2.06.17-3.08.25.01-1.96 0-3.9.09-5.86Z"/><path fill="#d99d8d" d="M186.32 219.3c.79-.32 1.58-.61 2.37-.89 1.97 5.99 4.99 11.43 6.66 17.52 9.26-.17 18.54-.4 27.79-.1.45 1.62.93 3.26 1.27 4.91-3.73-1.43-7.52-3.19-11.43-3.99-6.75-.51-13.65.27-20.4-.45-2.53-.23-4.5-2.03-5.77-4.13-1.8-3.85-1.32-8.82-.49-12.87Z"/><path fill="#fdfefe" d="M136.42 221.29c1.83-.22 3.67-.36 5.51-.5-.09 1.66-.13 3.32-.14 4.98-1.85-.04-3.69-.07-5.54-.1.04-1.46.08-2.92.17-4.38ZM106.7 223.87c1.05.13 2.1.27 3.15.4-.03 1.47-.06 2.94-.08 4.41-1.07.11-2.14.23-3.21.35.03-1.72.1-3.44.14-5.16Z"/><path fill="#008280" d="M52.66 227.96c1.46.27 2.92.54 4.38.82.05 5.87.39 11.72.9 17.57-1.45-.29-2.89-.57-4.34-.84.66 1.52 1.35 3.03 2.14 4.49h-3.29c-.12-7.35.09-14.69.21-22.04Z"/><path d="M57.04 228.78c.92.18 1.83.38 2.73.59 1.11 6.79 1.35 13.76 1.78 20.63h-5.81c-.79-1.46-1.48-2.97-2.14-4.49 1.45.27 2.89.55 4.34.84-.51-5.85-.85-11.7-.9-17.57Z"/><path fill="#fdfefe" d="M136.28 228.78c1.83-.05 3.67-.08 5.51-.09-.01 2.08-.08 4.16-.06 6.24-1.74-.32-3.5-.48-5.26-.66-.06-1.83-.13-3.66-.19-5.49Z"/><path fill="#d99d8d" d="M220.65 229.56c3.54-.39 7.06-.54 10.62-.52-.65 1.88-1.31 3.75-1.98 5.62-3.05-1.44-5.95-3.07-8.64-5.1Z"/><path fill="#fdfefe" d="M106.53 232.14c1.11-.07 2.23-.13 3.34-.17-.06 1.41-.13 2.83-.19 4.24-1.04.32-2.08.64-3.11.96-.02-1.68-.06-3.35-.04-5.03Z"/><path fill="#01aaa9" d="M184 234.26c1.98 4.69.32 10.69.22 15.74h-3.61c.3-5.55.56-10.79 3.39-15.74Z"/><path fill="#fdfefe" d="M136.41 236.55c1.8-.2 3.61-.31 5.42-.48.24 2.23.41 4.47.44 6.71-2 .04-3.99.09-5.99.11.03-2.11.03-4.23.13-6.34ZM106.57 240.05c1.06.19 2.12.38 3.17.57.03 1.73.07 3.46.11 5.19-1.09.14-2.19.28-3.29.41-.01-2.06-.01-4.11.01-6.17Z"/><path fill="#d99d8d" d="M192.83 242.22h1.96c2.68.13 5.38.44 8.05.72.01 2.35.01 4.71 0 7.06h-9.04c-.54-2.56-.85-5.16-.97-7.78Z"/><path fill="#008280" d="M188.02 241.44c1.3 3.01 1.34 4.05.01 7.07-1.59-3.17-1.57-3.89-.01-7.07Z"/><path fill="#fdfefe" d="M136.55 246.22c1.91-.26 3.82-.42 5.74-.58 0 1.45 0 2.91.01 4.36h-6.19c.14-1.26.28-2.52.44-3.78ZM106.56 248.6c1.36-.36 2.49.11 3.4 1.4h-3.24l-.16-1.4Z"/></svg>