<?xml version="1.0" encoding="UTF-8" standalone="no"?>
<!DOCTYPE svg PUBLIC "-//W3C//DTD SVG 1.1//EN" "http://www.w3.org/Graphics/SVG/1.1/DTD/svg11.dtd">
<svg xmlns="http://www.w3.org/2000/svg" version="1.1" viewBox="0 0 250 250" width="250.0pt" height="250.0pt" xmlns:xlink="http://www.w3.org/1999/xlink">
<defs>
<path d="M 0.00 0.00 L 25.73 0.00 C 20.59 1.04 15.59 0.60 10.40 0.95 C 13.53 4.41 16.96 7.45 19.60 11.34 C 22.34 15.43 25.26 19.37 28.05 23.43 C 24.53 23.47 21.01 23.49 17.50 23.64 C 21.97 30.37 27.88 35.69 31.50 43.03 C 28.93 43.18 26.36 43.28 23.79 43.40 C 25.32 47.87 27.82 51.74 30.29 55.73 C 32.57 58.88 31.65 63.04 31.53 66.68 C 31.36 71.01 29.89 75.95 32.19 79.83 C 34.01 82.94 35.55 85.84 36.14 89.45 C 32.55 90.00 28.10 89.36 25.67 92.64 C 21.04 99.46 21.34 107.01 22.45 114.85 C 23.20 117.92 24.18 120.94 25.03 123.98 C 26.40 128.86 29.73 132.42 32.52 136.53 C 34.16 138.78 35.65 141.28 38.17 142.64 C 40.56 143.97 42.94 145.62 45.55 146.47 C 48.65 147.17 52.16 146.50 55.32 146.40 C 56.25 151.55 57.35 156.64 59.09 161.59 C 60.23 164.76 60.28 168.62 63.15 170.77 C 68.41 175.28 73.83 179.59 79.02 184.18 C 71.65 184.52 64.30 184.23 56.94 184.32 C 53.61 184.38 50.06 185.05 47.66 187.55 C 43.79 191.72 40.10 196.12 36.82 200.76 C 35.58 203.22 35.25 206.21 34.64 208.88 C 31.23 221.84 32.88 236.48 32.50 250.00 L 0.00 250.00 L 0.00 0.00 Z" id="p0" />
<path d="M 25.73 0.00 L 28.99 0.00 L 29.44 0.68 C 29.94 1.47 30.44 2.25 30.93 3.04 C 26.49 3.55 22.02 3.76 17.57 4.12 C 22.43 11.05 27.48 17.86 32.36 24.79 C 29.39 25.06 26.41 25.29 23.43 25.53 C 24.25 27.32 25.05 29.32 26.28 30.87 C 30.89 31.86 36.02 31.26 40.68 30.82 C 37.78 27.56 34.76 24.42 31.88 21.15 C 36.00 21.28 40.12 21.54 44.24 21.78 C 42.72 19.57 41.14 17.40 39.59 15.21 C 45.41 14.68 51.23 14.61 57.06 14.58 C 59.59 14.46 62.12 14.60 64.36 13.26 C 67.75 11.25 70.92 8.86 74.22 6.72 C 74.41 8.26 74.57 9.81 74.73 11.36 C 83.70 10.77 91.99 7.65 100.82 6.39 C 100.60 5.86 100.37 5.34 100.14 4.81 C 97.31 4.46 94.49 4.08 91.67 3.64 C 93.12 2.39 94.56 1.14 96.11 0.00 L 181.62 0.00 C 182.47 4.25 183.12 8.38 182.49 12.73 C 181.86 17.53 179.61 21.51 177.81 25.96 C 182.62 23.43 187.03 20.46 192.29 18.84 C 189.52 22.55 186.15 25.58 182.93 28.87 C 189.66 28.93 196.38 28.78 203.11 29.01 C 200.16 33.02 197.60 37.20 195.75 41.83 C 199.28 43.73 202.76 45.71 206.20 47.77 C 203.09 51.38 200.21 55.16 197.35 58.97 C 201.63 59.75 205.88 60.63 210.10 61.69 C 209.45 63.83 208.99 65.65 207.00 66.95 C 202.85 69.86 199.84 72.75 196.74 76.77 C 198.11 77.64 199.49 78.51 200.86 79.39 C 200.71 81.15 200.55 82.92 200.41 84.68 C 202.29 85.71 204.17 86.75 206.05 87.79 C 204.32 90.07 202.32 92.26 200.91 94.76 C 200.11 96.64 200.09 98.91 199.80 100.92 C 201.09 98.63 202.18 95.97 203.97 94.02 C 205.73 92.62 207.92 91.69 209.91 90.65 C 210.20 87.42 210.00 83.94 210.88 80.82 C 211.90 78.92 213.59 77.38 214.85 75.63 C 213.05 74.79 211.19 74.08 209.36 73.33 C 211.03 69.28 213.71 66.00 216.01 62.32 C 214.20 61.21 212.37 60.12 210.54 59.03 C 213.90 54.57 216.72 49.92 218.25 44.51 C 215.80 44.15 213.36 43.80 210.91 43.48 C 210.62 38.88 209.85 33.70 211.02 29.21 C 213.45 25.58 217.49 22.99 220.47 19.77 C 215.50 19.03 210.52 18.61 205.53 18.07 C 207.31 11.80 209.74 4.97 214.09 0.00 L 217.70 0.00 C 215.92 2.76 214.25 5.56 212.22 8.16 C 210.24 10.65 210.24 13.36 209.80 16.36 C 214.53 16.70 219.18 17.36 223.83 18.30 C 224.03 19.20 224.23 20.10 224.44 21.00 C 220.83 23.50 217.15 25.92 214.83 29.79 C 213.84 33.58 214.56 37.92 214.52 41.82 C 216.97 42.30 219.42 42.77 221.86 43.28 C 219.31 48.06 217.53 53.13 215.29 58.05 C 216.77 58.82 218.23 59.61 219.70 60.39 C 218.49 64.54 216.42 68.04 214.05 71.61 C 215.76 72.86 217.49 74.08 219.22 75.30 C 217.77 77.44 216.03 79.41 214.72 81.63 C 214.02 83.97 214.43 86.74 214.43 89.17 C 216.75 90.24 218.95 91.34 220.69 93.27 C 223.90 97.69 224.47 102.68 224.29 108.01 C 224.45 115.60 221.45 123.33 218.06 130.01 C 216.37 133.41 213.13 135.69 210.71 138.72 C 208.71 141.20 206.38 143.30 203.88 145.26 C 206.15 146.36 209.94 146.45 210.27 149.52 C 211.34 156.24 210.15 164.06 212.14 170.74 C 213.69 173.97 214.97 177.87 217.41 180.53 C 221.05 182.35 225.09 183.08 228.57 185.36 C 231.17 186.65 232.07 189.07 233.77 191.32 C 237.66 197.35 242.66 201.09 242.63 208.97 C 242.24 218.01 243.04 227.07 242.32 236.08 C 242.00 240.98 240.55 245.30 239.26 250.00 L 234.79 250.00 C 235.86 245.95 236.31 241.79 237.20 237.71 C 238.24 236.46 239.50 235.64 239.63 233.90 C 240.01 230.30 239.70 226.61 239.68 223.00 C 239.55 217.58 239.98 212.00 239.40 206.63 C 238.54 206.11 237.68 205.60 236.81 205.10 C 235.96 197.64 229.82 191.24 224.28 186.68 C 219.21 184.10 213.19 184.27 207.70 184.32 C 201.17 184.18 194.55 185.47 188.09 186.36 C 185.63 186.57 183.74 188.47 181.77 189.84 C 179.54 194.56 180.67 199.48 181.64 204.36 C 182.15 206.94 183.21 209.21 184.63 211.39 C 185.24 212.40 185.83 213.41 186.42 214.44 C 195.39 214.68 204.37 214.45 213.35 214.46 C 213.97 213.60 214.59 212.75 215.21 211.89 C 217.04 211.96 218.86 212.06 220.68 212.14 C 220.75 213.44 220.81 214.74 220.86 216.03 C 210.51 218.86 199.00 215.94 188.69 218.41 C 187.90 218.69 187.11 218.98 186.32 219.30 C 185.49 223.35 185.01 228.32 186.81 232.17 C 188.08 234.27 190.05 236.07 192.58 236.30 C 199.33 237.02 206.23 236.24 212.98 236.75 C 216.89 237.55 220.68 239.31 224.41 240.74 L 223.89 242.53 C 214.18 242.39 204.50 242.37 194.79 242.22 L 192.83 242.22 C 192.95 244.84 193.26 247.44 193.80 250.00 L 184.22 250.00 C 184.32 244.95 185.98 238.95 184.00 234.26 C 182.94 231.23 182.01 228.28 182.26 225.01 C 182.29 222.15 183.29 219.26 183.13 216.43 C 182.32 213.90 180.87 211.54 179.74 209.13 C 178.51 205.93 177.53 202.64 176.36 199.41 C 176.13 197.75 176.04 196.09 176.07 194.41 C 176.89 192.75 177.66 191.08 178.41 189.39 C 174.16 189.23 169.88 189.05 165.63 189.25 L 165.42 190.16 L 164.94 192.44 C 162.43 194.33 161.07 196.71 159.61 199.42 C 157.35 201.61 155.23 203.79 152.55 205.48 C 150.55 206.82 148.18 207.89 146.46 209.56 C 145.21 214.08 146.04 219.34 146.06 224.00 C 146.18 232.67 146.11 241.33 146.37 250.00 L 142.30 250.00 C 142.29 248.55 142.29 247.09 142.29 245.64 C 142.29 244.69 142.28 243.73 142.27 242.78 C 142.24 240.54 142.07 238.30 141.83 236.07 L 141.73 234.93 C 141.71 232.85 141.78 230.77 141.79 228.69 C 141.79 227.71 141.79 226.74 141.79 225.77 C 141.80 224.11 141.84 222.45 141.93 220.79 C 142.20 217.44 142.33 214.11 142.30 210.74 C 140.13 210.96 138.00 211.17 135.86 211.58 C 133.31 212.66 130.84 214.24 128.04 214.43 C 121.95 214.81 115.83 214.10 109.72 214.68 C 108.75 214.87 107.79 215.08 106.82 215.31 C 106.73 217.27 106.74 219.21 106.73 221.17 C 106.72 222.07 106.71 222.97 106.70 223.87 C 106.66 225.59 106.59 227.31 106.56 229.03 C 106.54 230.06 106.53 231.10 106.53 232.14 C 106.51 233.82 106.55 235.49 106.57 237.17 C 106.57 238.13 106.57 239.09 106.57 240.05 C 106.55 242.11 106.55 244.16 106.56 246.22 C 106.57 247.01 106.57 247.81 106.56 248.60 L 106.72 250.00 L 102.54 250.00 C 102.14 236.90 102.98 223.82 102.54 210.73 C 99.31 208.87 95.42 206.97 93.04 204.06 C 91.75 202.59 90.60 200.99 89.28 199.55 C 88.47 198.68 87.63 197.85 86.81 197.00 C 86.14 195.57 85.59 194.10 85.10 192.61 C 84.79 191.56 84.49 190.51 84.20 189.46 C 76.46 189.23 68.70 189.36 60.95 189.30 C 58.25 189.35 54.98 189.26 52.51 190.49 C 45.21 194.44 41.05 201.76 39.77 209.80 C 39.00 215.51 36.46 220.21 36.49 225.96 C 36.47 233.97 36.59 241.99 36.52 250.00 L 32.50 250.00 C 32.88 236.48 31.23 221.84 34.64 208.88 C 35.25 206.21 35.58 203.22 36.82 200.76 C 40.10 196.12 43.79 191.72 47.66 187.55 C 50.06 185.05 53.61 184.38 56.94 184.32 C 64.30 184.23 71.65 184.52 79.02 184.18 C 73.83 179.59 68.41 175.28 63.15 170.77 C 60.28 168.62 60.23 164.76 59.09 161.59 C 57.35 156.64 56.25 151.55 55.32 146.40 C 52.16 146.50 48.65 147.17 45.55 146.47 C 42.94 145.62 40.56 143.97 38.17 142.64 C 35.65 141.28 34.16 138.78 32.52 136.53 C 29.73 132.42 26.40 128.86 25.03 123.98 C 24.18 120.94 23.20 117.92 22.45 114.85 C 21.34 107.01 21.04 99.46 25.67 92.64 C 28.10 89.36 32.55 90.00 36.14 89.45 C 35.55 85.84 34.01 82.94 32.19 79.83 C 29.89 75.95 31.36 71.01 31.53 66.68 C 31.65 63.04 32.57 58.88 30.29 55.73 C 27.82 51.74 25.32 47.87 23.79 43.40 C 26.36 43.28 28.93 43.18 31.50 43.03 C 27.88 35.69 21.97 30.37 17.50 23.64 C 21.01 23.49 24.53 23.47 28.05 23.43 C 25.26 19.37 22.34 15.43 19.60 11.34 C 16.96 7.45 13.53 4.41 10.40 0.95 C 15.59 0.60 20.59 1.04 25.73 0.00 Z M 104.06 59.54 C 103.83 58.79 103.59 58.04 103.35 57.29 C 106.30 55.43 109.15 53.45 112.05 51.52 C 106.19 53.53 100.34 56.21 94.21 57.15 C 87.68 58.14 81.70 60.63 75.04 61.02 C 68.82 61.72 62.45 61.26 56.19 61.31 C 55.12 63.49 53.72 65.76 53.12 68.10 C 53.74 70.38 55.84 72.17 56.74 74.38 C 57.34 78.52 54.12 81.61 53.21 85.55 C 53.19 86.52 53.18 87.49 53.18 88.46 C 54.17 88.63 55.15 88.81 56.14 89.00 L 56.87 89.94 C 56.08 90.67 55.26 91.37 54.45 92.07 C 55.38 92.30 56.32 92.52 57.25 92.75 C 56.62 94.82 55.77 96.91 55.46 99.05 C 55.71 103.23 57.07 107.38 57.89 111.48 C 55.27 111.49 52.66 111.48 50.04 111.52 C 50.59 118.15 52.95 124.23 54.19 130.75 C 56.64 136.31 56.50 142.33 58.77 147.92 C 60.62 152.53 60.46 156.85 63.04 161.03 C 64.20 163.04 64.66 165.28 65.70 167.32 C 67.83 170.23 70.54 172.45 73.45 174.55 C 78.92 178.87 83.99 183.40 90.20 186.69 C 93.75 190.25 97.30 193.65 101.56 196.39 C 108.59 197.31 115.90 196.62 123.00 196.83 C 129.16 196.66 135.44 197.18 141.56 196.59 C 145.82 193.86 150.05 191.16 153.72 187.65 C 156.70 185.19 160.12 183.02 163.62 181.39 C 166.53 180.03 168.87 177.40 171.58 175.56 C 173.96 174.00 176.14 172.09 178.05 169.99 C 181.21 165.34 180.56 160.34 181.94 154.91 C 182.56 151.63 184.08 148.79 185.69 145.91 C 186.82 144.90 187.98 143.94 189.10 142.93 C 189.25 141.86 189.37 140.79 189.45 139.72 C 189.67 137.02 189.98 134.35 190.67 131.72 C 192.75 125.10 193.56 118.02 194.52 111.15 C 191.75 111.30 188.98 111.47 186.20 111.51 C 189.25 106.07 190.25 100.33 190.29 94.16 C 189.50 92.38 187.83 90.89 186.55 89.44 C 187.60 89.42 188.65 89.39 189.70 89.38 C 191.32 89.35 192.95 89.30 194.57 89.23 C 194.39 88.08 194.19 86.92 193.98 85.77 C 193.00 82.23 190.78 79.33 189.60 75.91 C 188.93 72.85 191.13 69.32 192.62 66.78 C 190.89 63.20 189.99 59.42 187.43 56.59 C 186.19 55.05 185.25 53.18 184.29 51.43 C 182.12 51.01 179.94 50.58 177.76 50.17 C 178.77 48.21 179.88 46.32 181.03 44.45 C 178.58 44.41 176.12 44.40 173.67 44.37 C 174.71 43.03 175.76 41.69 176.73 40.29 C 174.09 41.24 171.50 42.22 168.73 42.73 C 169.06 39.16 168.97 36.11 168.02 32.65 C 165.43 32.78 162.14 32.28 159.80 33.57 C 157.87 34.57 155.64 35.48 154.02 36.95 C 151.80 39.56 150.31 42.41 147.47 44.43 C 144.70 46.44 141.60 48.57 138.24 49.38 C 132.84 50.63 127.86 52.94 122.58 54.60 C 116.53 57.30 110.01 56.40 104.06 59.54 Z M 37.46 84.56 C 38.22 84.65 38.99 84.73 39.75 84.81 C 40.57 83.87 41.39 82.94 42.21 82.00 C 40.37 79.96 38.52 77.94 36.64 75.93 C 37.53 74.86 38.47 73.79 39.25 72.63 C 38.94 70.28 37.51 67.95 36.43 65.86 C 39.36 65.16 42.28 64.43 45.18 63.64 C 44.14 61.89 43.18 59.79 41.66 58.40 C 39.72 57.15 37.39 56.40 35.26 55.53 C 34.14 52.40 32.98 49.20 31.59 46.18 C 30.45 46.10 29.31 46.06 28.17 46.06 C 29.75 50.42 32.62 54.23 34.28 58.52 C 35.93 63.53 32.82 69.71 33.29 74.69 C 34.00 78.13 35.98 81.39 37.46 84.56 Z M 45.92 100.42 C 45.99 94.50 42.78 90.27 39.11 86.01 C 39.49 91.87 42.80 95.75 45.92 100.42 Z M 52.84 142.64 C 52.75 140.44 52.65 138.24 52.60 136.03 C 49.00 134.60 45.69 135.83 42.02 135.40 C 36.88 133.75 33.07 128.73 31.43 123.77 C 32.86 124.57 34.24 125.43 35.59 126.35 C 35.43 123.95 35.26 121.49 35.71 119.11 C 37.54 116.62 40.55 114.89 43.03 113.12 C 42.23 111.10 41.79 108.02 39.78 106.86 C 37.29 106.93 34.83 107.48 32.34 107.64 C 34.26 106.52 36.26 105.56 38.29 104.63 C 35.94 101.89 34.67 99.87 30.73 99.36 C 30.13 103.70 30.78 108.05 30.18 112.36 C 27.55 109.79 27.50 106.46 27.78 103.00 C 28.00 100.36 29.63 98.73 31.09 96.67 C 35.46 99.16 39.79 100.04 42.04 104.96 C 43.70 109.31 44.79 113.83 46.63 118.13 C 45.17 120.75 42.69 123.47 43.49 126.71 C 44.23 130.24 46.97 132.31 50.42 132.96 C 49.84 124.91 47.28 117.51 45.06 109.83 C 43.79 106.52 43.69 102.90 42.46 99.62 C 39.15 95.52 34.67 92.57 29.16 93.63 C 27.81 96.58 25.77 99.65 25.68 102.90 C 25.34 107.20 25.49 111.62 26.24 115.87 C 28.56 123.36 31.79 131.92 38.35 136.71 C 40.90 138.62 43.16 142.19 46.34 142.86 C 48.43 143.59 50.69 142.89 52.84 142.64 Z M 194.45 132.78 C 195.94 132.67 197.41 132.50 198.87 132.27 C 200.50 130.09 202.19 127.63 203.02 125.02 C 202.29 122.71 200.04 120.53 199.74 118.17 C 200.54 112.24 203.20 105.60 206.87 100.86 C 208.90 98.89 211.88 96.88 214.84 97.20 C 216.14 98.16 217.26 99.36 218.44 100.46 C 218.29 104.07 218.33 107.66 217.81 111.25 C 217.04 111.32 216.27 111.39 215.50 111.46 C 215.88 108.23 217.30 105.72 216.51 102.42 C 216.41 99.59 212.47 98.93 210.57 100.42 C 209.16 101.57 208.03 103.19 206.96 104.66 C 208.73 105.51 210.50 106.34 212.19 107.33 C 210.09 107.28 208.00 107.06 205.91 106.83 C 205.10 108.54 203.19 110.80 203.69 112.76 C 205.93 115.68 210.29 118.69 209.77 122.78 C 209.78 124.64 209.01 126.11 208.33 127.78 C 210.16 125.68 211.67 124.11 214.54 123.48 C 212.20 127.37 208.92 131.83 205.69 135.01 C 202.07 136.24 197.63 134.95 193.81 135.17 C 193.55 137.78 193.39 140.38 193.34 143.00 C 196.66 143.28 199.60 143.56 202.50 141.58 C 206.12 138.53 208.84 134.46 212.15 131.09 C 214.41 128.95 216.15 126.26 217.42 123.43 C 219.04 118.48 218.96 113.74 220.20 108.71 C 221.05 105.56 219.32 101.82 218.67 98.68 C 218.29 96.97 217.78 95.29 217.29 93.60 C 214.58 93.66 210.90 92.87 208.49 94.30 C 206.24 96.33 204.01 98.18 203.46 101.32 C 202.55 106.28 199.77 110.38 198.46 115.20 C 196.36 120.86 196.14 126.96 194.45 132.78 Z M 40.50 132.48 C 42.21 133.01 43.91 133.56 45.61 134.11 C 43.85 131.62 41.60 128.18 41.73 125.05 C 42.32 121.85 43.42 118.79 43.90 115.57 C 41.47 117.03 39.20 117.93 38.59 121.04 C 38.06 124.74 39.83 128.82 40.50 132.48 Z M 201.35 116.51 C 202.67 119.10 204.32 122.11 204.56 125.05 C 204.55 128.38 201.98 131.43 200.15 134.02 C 202.01 133.54 203.87 133.06 205.72 132.57 C 206.39 128.65 207.88 124.07 207.11 120.13 C 206.66 118.31 205.32 117.37 203.95 116.26 C 203.09 116.33 202.22 116.42 201.35 116.51 Z M 186.75 149.69 C 185.79 153.68 184.88 157.64 183.45 161.50 C 182.48 164.65 181.92 169.12 183.95 171.97 C 184.80 173.44 185.71 174.89 186.70 176.27 C 188.43 177.96 190.56 181.24 193.00 181.66 C 199.20 181.34 205.24 180.43 211.49 180.90 L 211.22 180.08 C 210.05 175.11 207.62 170.09 207.68 165.05 C 207.52 159.81 207.72 154.75 206.76 149.56 C 203.52 149.16 200.30 148.75 197.04 148.71 C 193.54 148.63 190.17 148.92 186.75 149.69 Z M 168.40 182.37 C 168.36 183.04 168.31 183.71 168.27 184.38 C 174.20 184.31 180.13 184.33 186.06 184.36 C 185.85 179.90 183.37 176.98 180.94 173.50 C 176.43 176.04 172.70 179.52 168.40 182.37 Z M 155.66 191.68 C 152.79 193.54 149.21 195.21 146.90 197.75 C 146.30 200.44 146.54 203.37 146.51 206.11 C 150.22 203.55 153.73 200.89 156.52 197.31 C 158.83 194.30 160.70 192.04 160.76 188.03 C 159.06 189.25 157.37 190.48 155.66 191.68 Z M 91.66 196.34 C 94.39 201.34 97.68 204.63 102.76 207.23 C 102.71 205.38 102.75 203.47 102.43 201.66 C 99.45 198.97 95.91 196.87 92.73 194.42 C 91.92 193.84 91.09 193.30 90.24 192.78 C 90.67 193.98 91.14 195.17 91.66 196.34 Z M 107.66 212.57 C 108.66 211.07 109.62 209.53 110.54 207.97 C 114.34 208.94 118.06 209.73 122.02 209.53 C 127.32 209.79 132.00 207.52 137.26 207.43 C 139.60 207.14 141.74 208.19 143.23 205.87 C 143.57 203.97 143.51 201.97 143.57 200.04 C 131.26 201.71 118.43 200.03 106.04 200.54 C 105.23 204.82 106.44 208.52 107.66 212.57 Z M 188.03 248.51 C 189.36 245.49 189.32 244.45 188.02 241.44 C 186.46 244.62 186.44 245.34 188.03 248.51 Z" id="p1" />
<path d="M 28.99 0.00 L 44.22 0.00 C 43.80 1.95 43.47 3.92 43.15 5.90 C 48.91 4.45 54.66 3.37 60.59 2.96 C 60.87 4.94 61.13 6.93 61.41 8.92 C 65.69 8.27 70.00 7.65 74.22 6.72 C 70.92 8.86 67.75 11.25 64.36 13.26 C 62.12 14.60 59.59 14.46 57.06 14.58 C 51.23 14.61 45.41 14.68 39.59 15.21 C 41.14 17.40 42.72 19.57 44.24 21.78 C 40.12 21.54 36.00 21.28 31.88 21.15 C 34.76 24.42 37.78 27.56 40.68 30.82 C 36.02 31.26 30.89 31.86 26.28 30.87 C 25.05 29.32 24.25 27.32 23.43 25.53 C 26.41 25.29 29.39 25.06 32.36 24.79 C 27.48 17.86 22.43 11.05 17.57 4.12 C 22.02 3.76 26.49 3.55 30.93 3.04 C 30.44 2.25 29.94 1.47 29.44 0.68 L 28.99 0.00 Z" id="p2" />
<path d="M 44.22 0.00 L 83.07 0.00 C 80.15 2.40 77.57 4.90 74.22 6.72 C 70.00 7.65 65.69 8.27 61.41 8.92 C 61.13 6.93 60.87 4.94 60.59 2.96 C 54.66 3.37 48.91 4.45 43.15 5.90 C 43.47 3.92 43.80 1.95 44.22 0.00 Z" id="p3" />
<path d="M 83.07 0.00 L 96.11 0.00 C 94.56 1.14 93.12 2.39 91.67 3.64 C 94.49 4.08 97.31 4.46 100.14 4.81 C 100.37 5.34 100.60 5.86 100.82 6.39 C 91.99 7.65 83.70 10.77 74.73 11.36 C 74.57 9.81 74.41 8.26 74.22 6.72 C 77.57 4.90 80.15 2.40 83.07 0.00 Z" id="p4" />
<path d="M 181.62 0.00 L 214.09 0.00 C 209.74 4.97 207.31 11.80 205.53 18.07 C 210.52 18.61 215.50 19.03 220.47 19.77 C 217.49 22.99 213.45 25.58 211.02 29.21 C 209.85 33.70 210.62 38.88 210.91 43.48 C 213.36 43.80 215.80 44.15 218.25 44.51 C 216.72 49.92 213.90 54.57 210.54 59.03 C 212.37 60.12 214.20 61.21 216.01 62.32 C 213.71 66.00 211.03 69.28 209.36 73.33 C 211.19 74.08 213.05 74.79 214.85 75.63 C 213.59 77.38 211.90 78.92 210.88 80.82 C 210.00 83.94 210.20 87.42 209.91 90.65 C 207.92 91.69 205.73 92.62 203.97 94.02 C 202.18 95.97 201.09 98.63 199.80 100.92 C 200.09 98.91 200.11 96.64 200.91 94.76 C 202.32 92.26 204.32 90.07 206.05 87.79 C 204.17 86.75 202.29 85.71 200.41 84.68 C 200.55 82.92 200.71 81.15 200.86 79.39 C 199.49 78.51 198.11 77.64 196.74 76.77 C 199.84 72.75 202.85 69.86 207.00 66.95 C 208.99 65.65 209.45 63.83 210.10 61.69 C 205.88 60.63 201.63 59.75 197.35 58.97 C 200.21 55.16 203.09 51.38 206.20 47.77 C 202.76 45.71 199.28 43.73 195.75 41.83 C 197.60 37.20 200.16 33.02 203.11 29.01 C 196.38 28.78 189.66 28.93 182.93 28.87 C 186.15 25.58 189.52 22.55 192.29 18.84 C 187.03 20.46 182.62 23.43 177.81 25.96 C 179.61 21.51 181.86 17.53 182.49 12.73 C 183.12 8.38 182.47 4.25 181.62 0.00 Z" id="p5" />
<path d="M 217.70 0.00 L 250.00 0.00 L 250.00 250.00 L 239.26 250.00 C 240.55 245.30 242.00 240.98 242.32 236.08 C 243.04 227.07 242.24 218.01 242.63 208.97 C 242.66 201.09 237.66 197.35 233.77 191.32 C 232.07 189.07 231.17 186.65 228.57 185.36 C 225.09 183.08 221.05 182.35 217.41 180.53 C 214.97 177.87 213.69 173.97 212.14 170.74 C 210.15 164.06 211.34 156.24 210.27 149.52 C 209.94 146.45 206.15 146.36 203.88 145.26 C 206.38 143.30 208.71 141.20 210.71 138.72 C 213.13 135.69 216.37 133.41 218.06 130.01 C 221.45 123.33 224.45 115.60 224.29 108.01 C 224.47 102.68 223.90 97.69 220.69 93.27 C 218.95 91.34 216.75 90.24 214.43 89.17 C 214.43 86.74 214.02 83.97 214.72 81.63 C 216.03 79.41 217.77 77.44 219.22 75.30 C 217.49 74.08 215.76 72.86 214.05 71.61 C 216.42 68.04 218.49 64.54 219.70 60.39 C 218.23 59.61 216.77 58.82 215.29 58.05 C 217.53 53.13 219.31 48.06 221.86 43.28 C 219.42 42.77 216.97 42.30 214.52 41.82 C 214.56 37.92 213.84 33.58 214.83 29.79 C 217.15 25.92 220.83 23.50 224.44 21.00 C 224.23 20.10 224.03 19.20 223.83 18.30 C 219.18 17.36 214.53 16.70 209.80 16.36 C 210.24 13.36 210.24 10.65 212.22 8.16 C 214.25 5.56 215.92 2.76 217.70 0.00 Z" id="p6" />
<path d="M 168.02 32.65 C 168.97 36.11 169.06 39.16 168.73 42.73 C 168.08 49.01 171.69 53.47 173.47 59.40 C 175.13 65.05 177.36 70.71 178.19 76.54 C 174.15 75.15 170.53 72.98 166.65 71.30 C 161.93 70.96 156.98 71.73 152.35 72.63 C 147.32 74.19 142.24 74.53 137.02 74.95 C 135.91 77.34 134.71 79.66 133.29 81.88 C 131.93 84.22 130.57 86.83 131.40 89.60 C 133.09 94.65 136.60 98.42 141.54 100.45 C 140.99 101.87 139.89 103.62 140.89 105.06 C 142.35 107.48 145.35 109.47 148.16 109.81 C 150.30 109.88 152.54 108.99 154.61 108.47 C 156.98 108.60 159.34 108.63 161.72 108.54 C 165.11 109.38 168.00 109.64 171.37 108.48 C 172.07 108.30 172.76 108.11 173.46 107.93 C 174.78 111.97 176.30 115.91 178.36 119.65 C 179.28 121.64 181.02 124.24 180.34 126.50 C 179.28 130.80 177.29 134.81 176.26 139.14 C 174.37 146.92 172.20 154.74 169.29 162.21 C 167.60 166.87 162.08 169.21 158.56 172.61 C 153.62 177.31 148.37 181.67 143.59 186.53 C 141.88 188.10 140.49 189.71 138.00 189.87 C 132.04 190.39 125.99 189.75 120.00 189.93 C 115.40 189.90 110.64 190.38 106.08 189.78 C 103.79 189.52 101.87 187.15 100.28 185.64 C 95.27 180.30 89.72 175.58 84.20 170.78 C 79.87 166.89 75.63 163.13 73.47 157.55 C 69.73 147.47 68.72 137.40 65.85 127.21 C 65.43 125.13 64.59 122.81 65.76 120.82 C 67.54 117.47 69.76 114.09 72.33 111.29 C 73.62 109.80 76.26 109.88 78.08 109.60 C 83.42 109.47 88.75 109.77 94.09 109.73 C 97.27 109.69 100.25 108.95 102.38 106.43 C 103.34 104.86 103.40 102.66 103.75 100.87 C 105.78 99.14 108.09 97.58 109.13 95.03 C 110.77 90.99 110.94 86.28 110.05 82.04 C 109.81 80.95 108.60 80.12 107.87 79.31 C 107.18 77.67 106.49 76.02 105.80 74.38 C 102.18 73.77 98.84 72.31 95.19 71.88 C 91.11 71.38 87.03 70.79 82.94 70.38 C 77.98 70.44 73.37 74.03 69.12 76.23 C 68.43 72.93 68.13 69.73 69.55 66.55 C 70.67 63.98 72.73 62.46 75.04 61.02 C 81.70 60.63 87.68 58.14 94.21 57.15 C 100.34 56.21 106.19 53.53 112.05 51.52 C 109.15 53.45 106.30 55.43 103.35 57.29 C 103.59 58.04 103.83 58.79 104.06 59.54 C 110.01 56.40 116.53 57.30 122.58 54.60 C 127.86 52.94 132.84 50.63 138.24 49.38 C 141.60 48.57 144.70 46.44 147.47 44.43 C 150.31 42.41 151.80 39.56 154.02 36.95 C 155.64 35.48 157.87 34.57 159.80 33.57 C 162.14 32.28 165.43 32.78 168.02 32.65 Z M 107.46 136.64 C 108.27 136.56 109.08 136.47 109.89 136.38 L 110.27 137.05 C 111.78 140.77 115.68 142.02 119.30 142.69 C 123.46 143.35 127.12 140.87 130.61 139.00 C 130.60 137.86 130.61 136.71 130.64 135.57 C 130.67 134.45 130.70 133.32 130.74 132.20 C 124.89 131.92 118.87 131.38 113.04 131.99 C 110.60 132.01 108.95 135.01 107.46 136.64 Z M 96.62 155.97 C 99.56 156.96 102.59 157.49 105.61 158.12 C 107.98 159.34 110.17 160.41 112.93 160.28 C 120.57 160.23 128.22 160.20 135.86 159.99 C 136.14 161.65 136.43 163.32 136.72 164.98 C 138.05 164.62 139.45 164.30 140.72 163.76 C 141.81 162.96 142.42 161.45 143.17 160.34 C 142.18 160.20 141.20 160.06 140.21 159.93 L 139.76 157.82 C 143.07 157.67 146.28 157.27 149.43 156.18 C 147.46 155.70 145.57 155.52 143.55 155.80 C 133.61 157.16 123.12 156.79 113.03 156.75 C 107.20 156.78 102.34 154.99 96.62 155.97 Z M 110.02 167.88 L 110.77 168.81 C 112.54 170.92 114.47 173.93 117.37 174.44 C 120.57 175.00 124.31 174.84 127.24 173.35 C 128.11 172.01 128.64 170.39 129.23 168.91 L 129.69 167.75 C 123.17 167.42 116.53 167.28 110.02 167.88 Z" id="p7" />
<path d="M 176.73 40.29 C 175.76 41.69 174.71 43.03 173.67 44.37 C 176.12 44.40 178.58 44.41 181.03 44.45 C 179.88 46.32 178.77 48.21 177.76 50.17 C 179.94 50.58 182.12 51.01 184.29 51.43 C 185.25 53.18 186.19 55.05 187.43 56.59 C 189.99 59.42 190.89 63.20 192.62 66.78 C 191.13 69.32 188.93 72.85 189.60 75.91 C 190.78 79.33 193.00 82.23 193.98 85.77 C 193.01 86.20 192.04 86.65 191.09 87.12 C 190.62 87.86 190.15 88.62 189.70 89.38 C 188.65 89.39 187.60 89.42 186.55 89.44 C 187.83 90.89 189.50 92.38 190.29 94.16 C 190.25 100.33 189.25 106.07 186.20 111.51 C 188.98 111.47 191.75 111.30 194.52 111.15 C 193.56 118.02 192.75 125.10 190.67 131.72 C 189.98 134.35 189.67 137.02 189.45 139.72 C 187.99 141.68 186.78 143.72 185.69 145.91 C 184.08 148.79 182.56 151.63 181.94 154.91 C 180.56 160.34 181.21 165.34 178.05 169.99 C 176.14 172.09 173.96 174.00 171.58 175.56 C 168.87 177.40 166.53 180.03 163.62 181.39 C 160.12 183.02 156.70 185.19 153.72 187.65 C 150.05 191.16 145.82 193.86 141.56 196.59 C 135.44 197.18 129.16 196.66 123.00 196.83 C 115.90 196.62 108.59 197.31 101.56 196.39 C 97.30 193.65 93.75 190.25 90.20 186.69 C 83.99 183.40 78.92 178.87 73.45 174.55 C 70.54 172.45 67.83 170.23 65.70 167.32 C 64.66 165.28 64.20 163.04 63.04 161.03 C 60.46 156.85 60.62 152.53 58.77 147.92 C 56.50 142.33 56.64 136.31 54.19 130.75 C 52.95 124.23 50.59 118.15 50.04 111.52 C 52.66 111.48 55.27 111.49 57.89 111.48 C 57.07 107.38 55.71 103.23 55.46 99.05 C 55.77 96.91 56.62 94.82 57.25 92.75 C 56.32 92.52 55.38 92.30 54.45 92.07 C 55.26 91.37 56.08 90.67 56.87 89.94 L 56.14 89.00 C 55.20 87.82 54.23 86.67 53.21 85.55 C 54.12 81.61 57.34 78.52 56.74 74.38 C 55.84 72.17 53.74 70.38 53.12 68.10 C 53.72 65.76 55.12 63.49 56.19 61.31 C 62.45 61.26 68.82 61.72 75.04 61.02 C 72.73 62.46 70.67 63.98 69.55 66.55 C 68.13 69.73 68.43 72.93 69.12 76.23 C 69.72 76.89 70.32 77.54 70.94 78.18 C 70.04 78.53 69.15 78.90 68.27 79.28 C 68.51 81.72 68.77 84.15 68.89 86.60 C 68.74 87.65 68.56 88.70 68.35 89.75 C 68.11 90.80 67.85 91.84 67.60 92.89 C 67.07 95.05 66.51 97.16 66.57 99.41 C 67.40 101.59 68.35 104.23 70.11 105.83 C 72.31 107.71 75.31 108.83 78.08 109.60 C 76.26 109.88 73.62 109.80 72.33 111.29 C 69.76 114.09 67.54 117.47 65.76 120.82 C 64.59 122.81 65.43 125.13 65.85 127.21 C 68.72 137.40 69.73 147.47 73.47 157.55 C 75.63 163.13 79.87 166.89 84.20 170.78 C 89.72 175.58 95.27 180.30 100.28 185.64 C 101.87 187.15 103.79 189.52 106.08 189.78 C 110.64 190.38 115.40 189.90 120.00 189.93 C 125.99 189.75 132.04 190.39 138.00 189.87 C 140.49 189.71 141.88 188.10 143.59 186.53 C 148.37 181.67 153.62 177.31 158.56 172.61 C 162.08 169.21 167.60 166.87 169.29 162.21 C 172.20 154.74 174.37 146.92 176.26 139.14 C 177.29 134.81 179.28 130.80 180.34 126.50 C 181.02 124.24 179.28 121.64 178.36 119.65 C 176.30 115.91 174.78 111.97 173.46 107.93 C 172.76 108.11 172.07 108.30 171.37 108.48 C 174.14 106.18 176.64 103.96 177.54 100.34 C 177.88 98.41 177.96 96.46 177.94 94.50 L 177.85 92.79 L 177.71 90.57 C 177.20 86.30 178.30 82.24 178.22 77.99 L 178.19 76.54 C 177.36 70.71 175.13 65.05 173.47 59.40 C 171.69 53.47 168.08 49.01 168.73 42.73 C 171.50 42.22 174.09 41.24 176.73 40.29 Z" id="p8" />
<path d="M 28.17 46.06 C 29.31 46.06 30.45 46.10 31.59 46.18 C 32.98 49.20 34.14 52.40 35.26 55.53 C 37.39 56.40 39.72 57.15 41.66 58.40 C 43.18 59.79 44.14 61.89 45.18 63.64 C 42.28 64.43 39.36 65.16 36.43 65.86 C 37.51 67.95 38.94 70.28 39.25 72.63 C 38.47 73.79 37.53 74.86 36.64 75.93 C 38.52 77.94 40.37 79.96 42.21 82.00 C 41.39 82.94 40.57 83.87 39.75 84.81 C 38.99 84.73 38.22 84.65 37.46 84.56 C 35.98 81.39 34.00 78.13 33.29 74.69 C 32.82 69.71 35.93 63.53 34.28 58.52 C 32.62 54.23 29.75 50.42 28.17 46.06 Z" id="p9" />
<path d="M 82.94 70.38 C 87.03 70.79 91.11 71.38 95.19 71.88 C 98.84 72.31 102.18 73.77 105.80 74.38 C 106.49 76.02 107.18 77.67 107.87 79.31 C 108.19 80.12 108.51 80.92 108.83 81.73 C 101.08 81.06 93.76 78.64 85.97 78.53 C 81.03 78.36 75.82 77.57 70.94 78.18 C 70.32 77.54 69.72 76.89 69.12 76.23 C 73.37 74.03 77.98 70.44 82.94 70.38 Z" id="p10" />
<path d="M 166.65 71.30 C 170.53 72.98 174.15 75.15 178.19 76.54 L 178.22 77.99 C 178.02 78.79 177.82 79.60 177.61 80.40 C 171.74 80.38 165.87 80.65 160.00 80.61 C 151.07 80.56 142.22 81.78 133.29 81.88 C 134.71 79.66 135.91 77.34 137.02 74.95 C 142.24 74.53 147.32 74.19 152.35 72.63 C 156.98 71.73 161.93 70.96 166.65 71.30 Z" id="p11" />
<path d="M 70.94 78.18 C 75.82 77.57 81.03 78.36 85.97 78.53 C 93.76 78.64 101.08 81.06 108.83 81.73 C 108.51 80.92 108.19 80.12 107.87 79.31 C 108.60 80.12 109.81 80.95 110.05 82.04 C 110.94 86.28 110.77 90.99 109.13 95.03 C 108.09 97.58 105.78 99.14 103.75 100.87 C 102.90 100.35 102.06 99.83 101.22 99.31 C 101.77 98.91 102.32 98.50 102.87 98.10 C 101.25 96.78 99.76 95.13 97.94 94.11 C 95.36 92.95 92.38 92.52 89.62 91.96 C 90.80 91.12 91.99 90.29 93.18 89.46 C 95.28 90.01 97.35 90.64 99.43 91.26 C 97.40 89.23 96.04 86.82 93.00 86.38 C 85.21 84.70 76.71 85.30 68.89 86.60 C 68.77 84.15 68.51 81.72 68.27 79.28 C 69.15 78.90 70.04 78.53 70.94 78.18 Z" id="p12" />
<path d="M 178.22 77.99 C 178.30 82.24 177.20 86.30 177.71 90.57 C 176.02 88.63 174.93 85.35 171.87 85.58 C 167.57 85.33 163.23 85.42 158.92 85.49 C 153.23 85.22 148.46 89.64 143.76 92.53 C 144.89 92.85 146.02 93.15 147.16 93.44 C 144.35 94.44 143.68 96.60 142.35 99.01 L 141.54 100.45 C 136.60 98.42 133.09 94.65 131.40 89.60 C 130.57 86.83 131.93 84.22 133.29 81.88 C 142.22 81.78 151.07 80.56 160.00 80.61 C 165.87 80.65 171.74 80.38 177.61 80.40 C 177.82 79.60 178.02 78.79 178.22 77.99 Z" id="p13" />
<path d="M 93.00 86.38 C 96.04 86.82 97.40 89.23 99.43 91.26 C 97.35 90.64 95.28 90.01 93.18 89.46 C 88.35 88.29 83.04 86.09 78.04 86.87 C 74.71 87.58 71.77 89.30 68.35 89.75 C 68.56 88.70 68.74 87.65 68.89 86.60 C 76.71 85.30 85.21 84.70 93.00 86.38 Z" id="p14" />
<path d="M 158.92 85.49 C 163.23 85.42 167.57 85.33 171.87 85.58 C 174.93 85.35 176.02 88.63 177.71 90.57 L 177.85 92.79 C 175.89 90.89 174.15 88.36 171.78 86.97 C 166.57 86.47 160.38 86.14 155.56 88.49 C 151.65 90.02 147.87 91.63 143.76 92.53 C 148.46 89.64 153.23 85.22 158.92 85.49 Z" id="p15" />
<path d="M 39.11 86.01 C 42.78 90.27 45.99 94.50 45.92 100.42 C 42.80 95.75 39.49 91.87 39.11 86.01 Z" id="p16" />
<path d="M 53.21 85.55 C 54.23 86.67 55.20 87.82 56.14 89.00 C 55.15 88.81 54.17 88.63 53.18 88.46 C 53.18 87.49 53.19 86.52 53.21 85.55 Z" id="p17" />
<path d="M 191.09 87.12 C 192.04 86.65 193.01 86.20 193.98 85.77 C 194.19 86.92 194.39 88.08 194.57 89.23 C 192.95 89.30 191.32 89.35 189.70 89.38 C 190.15 88.62 190.62 87.86 191.09 87.12 Z" id="p18" />
<path d="M 78.04 86.87 C 83.04 86.09 88.35 88.29 93.18 89.46 C 91.99 90.29 90.80 91.12 89.62 91.96 C 85.70 91.30 81.99 90.35 77.98 90.50 C 74.23 90.45 71.08 91.72 67.60 92.89 C 67.85 91.84 68.11 90.80 68.35 89.75 C 71.77 89.30 74.71 87.58 78.04 86.87 Z" id="p19" />
<path d="M 171.78 86.97 C 174.15 88.36 175.89 90.89 177.85 92.79 L 177.94 94.50 C 175.62 93.02 173.50 91.51 170.77 90.87 C 162.22 89.42 155.40 92.06 147.16 93.44 C 146.02 93.15 144.89 92.85 143.76 92.53 C 147.87 91.63 151.65 90.02 155.56 88.49 C 160.38 86.14 166.57 86.47 171.78 86.97 Z" id="p20" />
<path d="M 77.98 90.50 C 81.99 90.35 85.70 91.30 89.62 91.96 C 92.38 92.52 95.36 92.95 97.94 94.11 C 99.76 95.13 101.25 96.78 102.87 98.10 C 102.32 98.50 101.77 98.91 101.22 99.31 C 99.66 98.30 98.12 97.29 96.51 96.37 C 96.07 100.31 95.63 103.72 92.68 106.61 C 90.12 108.21 87.24 109.95 84.09 109.38 C 81.54 108.48 78.69 107.03 76.50 105.43 C 74.53 102.07 75.19 98.87 75.50 95.20 C 71.74 95.95 69.13 96.23 66.57 99.41 C 66.51 97.16 67.07 95.05 67.60 92.89 C 71.08 91.72 74.23 90.45 77.98 90.50 Z M 85.63 95.46 C 85.66 96.68 85.68 97.91 85.71 99.13 C 87.03 99.51 88.35 99.89 89.67 100.26 C 88.08 101.04 86.53 101.99 84.87 102.62 C 81.35 101.47 79.31 97.96 75.50 100.70 C 76.97 103.66 79.70 106.81 83.08 107.50 C 85.23 107.79 87.68 107.88 89.73 107.09 C 92.04 106.16 92.78 104.11 94.06 102.16 C 93.10 101.38 92.13 100.61 91.17 99.83 C 92.91 98.55 93.89 98.39 93.15 95.91 C 90.73 95.45 88.10 95.51 85.63 95.46 Z" id="p21" />
<path d="M 170.77 90.87 C 173.50 91.51 175.62 93.02 177.94 94.50 C 177.96 96.46 177.88 98.41 177.54 100.34 C 176.04 98.28 175.00 96.60 172.53 95.66 C 171.58 95.12 170.63 94.57 169.68 94.04 C 168.85 94.89 168.07 95.77 167.30 96.67 C 164.83 95.44 162.43 94.54 159.65 94.32 C 159.63 95.88 159.61 97.43 159.68 98.99 L 161.57 100.12 C 160.36 101.23 159.13 102.30 157.86 103.34 C 157.19 102.37 156.51 101.39 155.83 100.43 C 156.41 98.78 156.99 97.12 157.55 95.46 C 155.31 95.79 152.92 96.04 150.77 96.78 C 149.96 98.71 149.56 100.89 149.29 102.97 C 148.94 100.76 148.77 98.55 148.56 96.33 C 146.46 97.15 144.40 98.07 142.35 99.01 C 143.68 96.60 144.35 94.44 147.16 93.44 C 155.40 92.06 162.22 89.42 170.77 90.87 Z" id="p22" />
<path d="M 29.16 93.63 C 34.67 92.57 39.15 95.52 42.46 99.62 C 43.69 102.90 43.79 106.52 45.06 109.83 C 47.28 117.51 49.84 124.91 50.42 132.96 C 46.97 132.31 44.23 130.24 43.49 126.71 C 42.69 123.47 45.17 120.75 46.63 118.13 C 44.79 113.83 43.70 109.31 42.04 104.96 C 39.79 100.04 35.46 99.16 31.09 96.67 C 29.63 98.73 28.00 100.36 27.78 103.00 C 27.50 106.46 27.55 109.79 30.18 112.36 C 29.48 116.29 30.19 120.03 31.43 123.77 C 33.07 128.73 36.88 133.75 42.02 135.40 C 45.69 135.83 49.00 134.60 52.60 136.03 C 52.65 138.24 52.75 140.44 52.84 142.64 C 50.69 142.89 48.43 143.59 46.34 142.86 C 43.16 142.19 40.90 138.62 38.35 136.71 C 31.79 131.92 28.56 123.36 26.24 115.87 C 25.49 111.62 25.34 107.20 25.68 102.90 C 25.77 99.65 27.81 96.58 29.16 93.63 Z" id="p23" />
<path d="M 167.30 96.67 C 166.59 97.51 165.88 98.35 165.17 99.19 C 165.05 98.09 164.93 96.99 164.81 95.88 C 163.57 95.76 162.32 95.65 161.08 95.56 C 160.59 96.70 160.13 97.84 159.68 98.99 C 159.61 97.43 159.63 95.88 159.65 94.32 C 162.43 94.54 164.83 95.44 167.30 96.67 Z" id="p24" />
<path d="M 169.68 94.04 C 170.63 94.57 171.58 95.12 172.53 95.66 C 171.21 95.56 169.89 95.47 168.56 95.38 C 168.70 99.20 169.26 102.63 167.19 106.07 C 165.48 107.09 163.56 107.80 161.72 108.54 C 159.34 108.63 156.98 108.60 154.61 108.47 C 152.02 106.97 149.85 106.22 149.29 102.97 C 149.56 100.89 149.96 98.71 150.77 96.78 C 152.92 96.04 155.31 95.79 157.55 95.46 C 156.99 97.12 156.41 98.78 155.83 100.43 C 153.70 100.38 151.76 100.15 150.08 101.76 C 151.19 107.40 158.68 108.86 163.23 106.61 C 166.22 105.52 166.94 103.08 168.12 100.43 C 166.94 100.20 165.77 99.99 164.59 99.81 L 165.17 99.19 C 165.88 98.35 166.59 97.51 167.30 96.67 C 168.07 95.77 168.85 94.89 169.68 94.04 Z" id="p25" />
<path d="M 208.49 94.30 C 210.90 92.87 214.58 93.66 217.29 93.60 C 217.78 95.29 218.29 96.97 218.67 98.68 L 218.44 100.46 C 217.26 99.36 216.14 98.16 214.84 97.20 C 211.88 96.88 208.90 98.89 206.87 100.86 C 203.20 105.60 200.54 112.24 199.74 118.17 C 200.04 120.53 202.29 122.71 203.02 125.02 C 202.19 127.63 200.50 130.09 198.87 132.27 C 197.41 132.50 195.94 132.67 194.45 132.78 C 196.14 126.96 196.36 120.86 198.46 115.20 C 199.77 110.38 202.55 106.28 203.46 101.32 C 204.01 98.18 206.24 96.33 208.49 94.30 Z" id="p26" />
<path d="M 75.50 95.20 C 75.19 98.87 74.53 102.07 76.50 105.43 C 78.69 107.03 81.54 108.48 84.09 109.38 C 87.24 109.95 90.12 108.21 92.68 106.61 C 95.63 103.72 96.07 100.31 96.51 96.37 C 98.12 97.29 99.66 98.30 101.22 99.31 C 102.06 99.83 102.90 100.35 103.75 100.87 C 103.40 102.66 103.34 104.86 102.38 106.43 C 100.25 108.95 97.27 109.69 94.09 109.73 C 88.75 109.77 83.42 109.47 78.08 109.60 C 75.31 108.83 72.31 107.71 70.11 105.83 C 68.35 104.23 67.40 101.59 66.57 99.41 C 69.13 96.23 71.74 95.95 75.50 95.20 Z" id="p27" />
<path d="M 85.63 95.46 C 88.10 95.51 90.73 95.45 93.15 95.91 C 93.89 98.39 92.91 98.55 91.17 99.83 L 89.67 100.26 C 88.35 99.89 87.03 99.51 85.71 99.13 C 85.68 97.91 85.66 96.68 85.63 95.46 Z" id="p28" />
<path d="M 161.08 95.56 C 162.32 95.65 163.57 95.76 164.81 95.88 C 164.93 96.99 165.05 98.09 165.17 99.19 L 164.59 99.81 C 163.58 99.92 162.58 100.03 161.57 100.12 L 159.68 98.99 C 160.13 97.84 160.59 96.70 161.08 95.56 Z" id="p29" />
<path d="M 168.56 95.38 C 169.89 95.47 171.21 95.56 172.53 95.66 C 175.00 96.60 176.04 98.28 177.54 100.34 C 176.64 103.96 174.14 106.18 171.37 108.48 C 168.00 109.64 165.11 109.38 161.72 108.54 C 163.56 107.80 165.48 107.09 167.19 106.07 C 169.26 102.63 168.70 99.20 168.56 95.38 Z" id="p30" />
<path d="M 148.56 96.33 C 148.77 98.55 148.94 100.76 149.29 102.97 C 149.85 106.22 152.02 106.97 154.61 108.47 C 152.54 108.99 150.30 109.88 148.16 109.81 C 145.35 109.47 142.35 107.48 140.89 105.06 C 139.89 103.62 140.99 101.87 141.54 100.45 L 142.35 99.01 C 144.40 98.07 146.46 97.15 148.56 96.33 Z" id="p31" />
<path d="M 218.67 98.68 C 219.32 101.82 221.05 105.56 220.20 108.71 C 218.96 113.74 219.04 118.48 217.42 123.43 C 216.15 126.26 214.41 128.95 212.15 131.09 C 208.84 134.46 206.12 138.53 202.50 141.58 C 199.60 143.56 196.66 143.28 193.34 143.00 C 193.39 140.38 193.55 137.78 193.81 135.17 C 197.63 134.95 202.07 136.24 205.69 135.01 C 208.92 131.83 212.20 127.37 214.54 123.48 C 215.36 121.29 216.16 119.03 216.57 116.72 C 216.89 115.03 215.94 113.08 215.50 111.46 C 216.27 111.39 217.04 111.32 217.81 111.25 C 218.33 107.66 218.29 104.07 218.44 100.46 L 218.67 98.68 Z" id="p32" />
<path d="M 30.73 99.36 C 34.67 99.87 35.94 101.89 38.29 104.63 C 36.26 105.56 34.26 106.52 32.34 107.64 C 34.83 107.48 37.29 106.93 39.78 106.86 C 41.79 108.02 42.23 111.10 43.03 113.12 C 40.55 114.89 37.54 116.62 35.71 119.11 C 35.26 121.49 35.43 123.95 35.59 126.35 C 34.24 125.43 32.86 124.57 31.43 123.77 C 30.19 120.03 29.48 116.29 30.18 112.36 C 30.78 108.05 30.13 103.70 30.73 99.36 Z" id="p33" />
<path d="M 84.87 102.62 C 86.53 101.99 88.08 101.04 89.67 100.26 L 91.17 99.83 C 92.13 100.61 93.10 101.38 94.06 102.16 C 92.78 104.11 92.04 106.16 89.73 107.09 C 87.68 107.88 85.23 107.79 83.08 107.50 C 79.70 106.81 76.97 103.66 75.50 100.70 C 79.31 97.96 81.35 101.47 84.87 102.62 Z" id="p34" />
<path d="M 155.83 100.43 C 156.51 101.39 157.19 102.37 157.86 103.34 C 159.13 102.30 160.36 101.23 161.57 100.12 C 162.58 100.03 163.58 99.92 164.59 99.81 C 165.77 99.99 166.94 100.20 168.12 100.43 C 166.94 103.08 166.22 105.52 163.23 106.61 C 158.68 108.86 151.19 107.40 150.08 101.76 C 151.76 100.15 153.70 100.38 155.83 100.43 Z" id="p35" />
<path d="M 216.51 102.42 C 217.30 105.72 215.88 108.23 215.50 111.46 C 215.94 113.08 216.89 115.03 216.57 116.72 C 216.16 119.03 215.36 121.29 214.54 123.48 C 211.67 124.11 210.16 125.68 208.33 127.78 C 209.01 126.11 209.78 124.64 209.77 122.78 C 210.29 118.69 205.93 115.68 203.69 112.76 C 203.19 110.80 205.10 108.54 205.91 106.83 C 208.00 107.06 210.09 107.28 212.19 107.33 C 210.50 106.34 208.73 105.51 206.96 104.66 C 208.03 103.19 209.16 101.57 210.57 100.42 C 212.47 98.93 216.41 99.59 216.51 102.42 Z" id="p36" />
<path d="M 43.90 115.57 C 43.42 118.79 42.32 121.85 41.73 125.05 C 41.60 128.18 43.85 131.62 45.61 134.11 C 43.91 133.56 42.21 133.01 40.50 132.48 C 39.83 128.82 38.06 124.74 38.59 121.04 C 39.20 117.93 41.47 117.03 43.90 115.57 Z" id="p37" />
<path d="M 203.95 116.26 C 205.32 117.37 206.66 118.31 207.11 120.13 C 207.88 124.07 206.39 128.65 205.72 132.57 C 203.87 133.06 202.01 133.54 200.15 134.02 C 201.98 131.43 204.55 128.38 204.56 125.05 C 204.32 122.11 202.67 119.10 201.35 116.51 C 202.22 116.42 203.09 116.33 203.95 116.26 Z" id="p38" />
<path d="M 113.04 131.99 C 118.87 131.38 124.89 131.92 130.74 132.20 C 130.70 133.32 130.67 134.45 130.64 135.57 C 128.68 134.83 126.77 134.00 124.84 133.21 C 126.79 135.11 128.79 136.96 130.61 139.00 C 127.12 140.87 123.46 143.35 119.30 142.69 C 115.68 142.02 111.78 140.77 110.27 137.05 C 110.50 137.40 110.74 137.75 110.97 138.10 C 113.36 136.47 115.84 134.99 118.17 133.26 C 115.36 134.18 112.61 135.23 109.89 136.38 C 109.08 136.47 108.27 136.56 107.46 136.64 C 108.95 135.01 110.60 132.01 113.04 131.99 Z" id="p39" />
<path d="M 118.17 133.26 C 115.84 134.99 113.36 136.47 110.97 138.10 C 110.74 137.75 110.50 137.40 110.27 137.05 L 109.89 136.38 C 112.61 135.23 115.36 134.18 118.17 133.26 Z" id="p40" />
<path d="M 124.84 133.21 C 126.77 134.00 128.68 134.83 130.64 135.57 C 130.61 136.71 130.60 137.86 130.61 139.00 C 128.79 136.96 126.79 135.11 124.84 133.21 Z" id="p41" />
<path d="M 189.45 139.72 C 189.37 140.79 189.25 141.86 189.10 142.93 C 187.98 143.94 186.82 144.90 185.69 145.91 C 186.78 143.72 187.99 141.68 189.45 139.72 Z" id="p42" />
<path d="M 197.04 148.71 C 197.56 149.50 198.07 150.30 198.59 151.10 C 195.10 151.30 192.12 150.56 190.22 154.21 C 187.78 158.47 189.77 163.13 194.71 163.76 C 197.07 162.30 198.20 159.44 199.44 157.08 C 197.19 156.74 194.94 156.45 192.69 156.13 C 194.15 156.96 195.65 157.79 196.99 158.80 C 196.42 159.82 195.82 160.82 195.19 161.80 C 193.33 160.87 191.48 159.93 189.62 158.99 C 190.73 157.00 191.84 154.79 193.35 153.09 C 195.70 152.70 198.39 153.30 199.56 155.57 C 201.41 159.02 199.75 163.65 198.93 167.21 C 196.06 166.74 193.19 166.26 190.34 165.73 C 189.86 166.16 189.39 166.59 188.91 167.02 C 192.63 167.81 196.14 168.11 199.94 168.02 C 200.66 163.91 201.13 159.83 201.40 155.67 C 204.40 161.46 201.72 167.37 203.77 173.36 C 204.32 174.96 205.07 176.55 205.78 178.09 C 199.30 177.97 193.03 177.94 186.70 176.27 C 185.71 174.89 184.80 173.44 183.95 171.97 C 181.92 169.12 182.48 164.65 183.45 161.50 C 184.88 157.64 185.79 153.68 186.75 149.69 C 190.17 148.92 193.54 148.63 197.04 148.71 Z" id="p43" />
<path d="M 197.04 148.71 C 200.30 148.75 203.52 149.16 206.76 149.56 C 207.72 154.75 207.52 159.81 207.68 165.05 C 207.62 170.09 210.05 175.11 211.22 180.08 C 209.45 179.31 207.64 178.63 205.78 178.09 C 205.07 176.55 204.32 174.96 203.77 173.36 C 201.72 167.37 204.40 161.46 201.40 155.67 C 200.50 154.12 199.54 152.61 198.59 151.10 C 198.07 150.30 197.56 149.50 197.04 148.71 Z" id="p44" />
<path d="M 198.59 151.10 C 199.54 152.61 200.50 154.12 201.40 155.67 C 201.13 159.83 200.66 163.91 199.94 168.02 C 196.14 168.11 192.63 167.81 188.91 167.02 C 189.39 166.59 189.86 166.16 190.34 165.73 C 193.19 166.26 196.06 166.74 198.93 167.21 C 199.75 163.65 201.41 159.02 199.56 155.57 C 198.39 153.30 195.70 152.70 193.35 153.09 C 191.84 154.79 190.73 157.00 189.62 158.99 C 191.48 159.93 193.33 160.87 195.19 161.80 C 195.82 160.82 196.42 159.82 196.99 158.80 C 195.65 157.79 194.15 156.96 192.69 156.13 C 194.94 156.45 197.19 156.74 199.44 157.08 C 198.20 159.44 197.07 162.30 194.71 163.76 C 189.77 163.13 187.78 158.47 190.22 154.21 C 192.12 150.56 195.10 151.30 198.59 151.10 Z" id="p45" />
<path d="M 113.03 156.75 C 123.12 156.79 133.61 157.16 143.55 155.80 C 145.57 155.52 147.46 155.70 149.43 156.18 C 146.28 157.27 143.07 157.67 139.76 157.82 C 135.75 157.96 131.90 158.59 127.97 159.33 C 120.44 159.74 113.01 159.76 105.61 158.12 C 102.59 157.49 99.56 156.96 96.62 155.97 C 102.34 154.99 107.20 156.78 113.03 156.75 Z" id="p46" />
<path d="M 105.61 158.12 C 113.01 159.76 120.44 159.74 127.97 159.33 C 131.90 158.59 135.75 157.96 139.76 157.82 L 140.21 159.93 C 138.76 159.93 137.31 159.95 135.86 159.99 C 128.22 160.20 120.57 160.23 112.93 160.28 C 110.17 160.41 107.98 159.34 105.61 158.12 Z" id="p47" />
<path d="M 135.86 159.99 C 137.31 159.95 138.76 159.93 140.21 159.93 C 141.20 160.06 142.18 160.20 143.17 160.34 C 142.42 161.45 141.81 162.96 140.72 163.76 C 139.45 164.30 138.05 164.62 136.72 164.98 C 136.43 163.32 136.14 161.65 135.86 159.99 Z" id="p48" />
<path d="M 110.02 167.88 C 116.53 167.28 123.17 167.42 129.69 167.75 L 129.23 168.91 C 123.19 169.39 116.80 169.47 110.77 168.81 L 110.02 167.88 Z" id="p49" />
<path d="M 110.77 168.81 C 116.80 169.47 123.19 169.39 129.23 168.91 C 128.64 170.39 128.11 172.01 127.24 173.35 C 124.31 174.84 120.57 175.00 117.37 174.44 C 114.47 173.93 112.54 170.92 110.77 168.81 Z" id="p50" />
<path d="M 180.94 173.50 C 183.37 176.98 185.85 179.90 186.06 184.36 C 180.13 184.33 174.20 184.31 168.27 184.38 C 168.31 183.71 168.36 183.04 168.40 182.37 C 172.70 179.52 176.43 176.04 180.94 173.50 Z" id="p51" />
<path d="M 186.70 176.27 C 193.03 177.94 199.30 177.97 205.78 178.09 C 207.64 178.63 209.45 179.31 211.22 180.08 L 211.49 180.90 C 205.24 180.43 199.20 181.34 193.00 181.66 C 190.56 181.24 188.43 177.96 186.70 176.27 Z" id="p52" />
<path d="M 207.70 184.32 C 211.59 185.17 215.46 185.96 218.67 188.44 C 221.37 190.51 224.10 192.35 227.08 194.00 C 228.83 195.12 231.06 196.19 231.47 198.45 C 232.10 202.82 228.84 207.52 229.08 211.85 C 229.97 216.53 233.39 220.82 234.05 225.51 C 234.10 228.42 232.84 231.42 232.29 234.27 C 231.01 239.57 232.18 244.72 232.96 250.00 L 202.84 250.00 C 202.85 247.65 202.85 245.29 202.84 242.94 C 200.17 242.66 197.47 242.35 194.79 242.22 C 204.50 242.37 214.18 242.39 223.89 242.53 L 224.41 240.74 C 224.07 239.09 223.59 237.45 223.14 235.83 C 213.89 235.53 204.61 235.76 195.35 235.93 C 193.68 229.84 190.66 224.40 188.69 218.41 C 199.00 215.94 210.51 218.86 220.86 216.03 C 220.81 214.74 220.75 213.44 220.68 212.14 L 220.61 211.22 C 212.47 211.18 204.36 211.53 196.22 211.04 C 192.17 209.42 185.63 208.23 184.54 203.30 C 183.03 199.06 182.70 194.26 181.77 189.84 C 183.74 188.47 185.63 186.57 188.09 186.36 C 194.55 185.47 201.17 184.18 207.70 184.32 Z M 216.12 203.18 C 218.04 205.29 220.19 207.06 222.47 208.77 L 223.65 209.67 C 225.21 208.42 227.55 206.95 227.66 204.78 C 227.86 203.66 228.03 202.54 228.17 201.41 C 222.91 200.44 217.47 199.39 212.13 198.99 C 213.40 200.44 214.73 201.83 216.12 203.18 Z M 220.65 229.56 C 223.34 231.59 226.24 233.22 229.29 234.66 C 229.96 232.79 230.62 230.92 231.27 229.04 C 227.71 229.02 224.19 229.17 220.65 229.56 Z" id="p53" />
<path d="M 207.70 184.32 C 213.19 184.27 219.21 184.10 224.28 186.68 C 229.82 191.24 235.96 197.64 236.81 205.10 C 236.32 212.53 236.10 219.88 236.47 227.31 C 237.44 227.58 238.41 227.85 239.38 228.12 C 239.05 231.43 238.01 234.51 237.20 237.71 C 236.31 241.79 235.86 245.95 234.79 250.00 L 232.96 250.00 C 232.18 244.72 231.01 239.57 232.29 234.27 C 232.84 231.42 234.10 228.42 234.05 225.51 C 233.39 220.82 229.97 216.53 229.08 211.85 C 228.84 207.52 232.10 202.82 231.47 198.45 C 231.06 196.19 228.83 195.12 227.08 194.00 C 224.10 192.35 221.37 190.51 218.67 188.44 C 215.46 185.96 211.59 185.17 207.70 184.32 Z" id="p54" />
<path d="M 160.76 188.03 C 160.70 192.04 158.83 194.30 156.52 197.31 C 156.23 195.43 155.94 193.56 155.66 191.68 C 157.37 190.48 159.06 189.25 160.76 188.03 Z" id="p55" />
<path d="M 60.95 189.30 C 68.70 189.36 76.46 189.23 84.20 189.46 C 84.49 190.51 84.79 191.56 85.10 192.61 L 84.22 192.63 C 76.23 192.33 68.12 192.02 60.14 192.55 C 56.50 192.81 53.33 194.14 50.92 196.93 C 46.81 201.71 44.00 208.49 43.62 214.77 C 43.41 226.50 43.41 238.26 43.29 250.00 L 39.65 250.00 C 39.73 236.60 39.45 223.19 39.77 209.80 C 41.05 201.76 45.21 194.44 52.51 190.49 C 54.98 189.26 58.25 189.35 60.95 189.30 Z" id="p56" />
<path d="M 165.63 189.25 C 169.88 189.05 174.16 189.23 178.41 189.39 C 177.66 191.08 176.89 192.75 176.07 194.41 L 176.23 192.34 C 176.33 191.38 176.43 190.41 176.54 189.45 C 172.78 189.52 169.14 189.53 165.42 190.16 L 165.63 189.25 Z" id="p57" />
<path d="M 165.42 190.16 C 169.14 189.53 172.78 189.52 176.54 189.45 C 176.43 190.41 176.33 191.38 176.23 192.34 C 172.47 192.26 168.70 192.26 164.94 192.44 L 165.42 190.16 Z" id="p58" />
<path d="M 181.77 189.84 C 182.70 194.26 183.03 199.06 184.54 203.30 C 185.63 208.23 192.17 209.42 196.22 211.04 C 192.36 211.14 188.50 211.34 184.63 211.39 C 183.21 209.21 182.15 206.94 181.64 204.36 C 180.67 199.48 179.54 194.56 181.77 189.84 Z" id="p59" />
<path d="M 60.14 192.55 C 68.12 192.02 76.23 192.33 84.22 192.63 C 82.13 192.83 80.02 193.12 77.94 193.40 C 78.33 195.37 78.72 197.35 79.12 199.33 C 82.07 199.11 84.30 198.65 86.81 197.00 C 87.63 197.85 88.47 198.68 89.28 199.55 C 87.93 199.56 86.59 199.60 85.24 199.65 C 77.05 200.10 68.48 199.04 60.40 200.39 C 56.18 204.61 52.98 210.89 53.00 216.96 C 52.90 218.59 52.85 220.22 52.77 221.85 C 52.14 223.16 51.46 224.44 50.79 225.73 C 48.54 225.09 46.30 224.47 44.05 223.86 C 43.82 220.82 43.61 217.81 43.62 214.77 C 44.00 208.49 46.81 201.71 50.92 196.93 C 53.33 194.14 56.50 192.81 60.14 192.55 Z" id="p60" />
<path d="M 155.66 191.68 C 155.94 193.56 156.23 195.43 156.52 197.31 C 153.73 200.89 150.22 203.55 146.51 206.11 C 146.54 203.37 146.30 200.44 146.90 197.75 C 149.21 195.21 152.79 193.54 155.66 191.68 Z" id="p61" />
<path d="M 164.94 192.44 C 168.70 192.26 172.47 192.26 176.23 192.34 L 176.07 194.41 C 176.04 196.09 176.13 197.75 176.36 199.41 C 172.49 199.52 168.63 199.54 164.76 199.51 C 163.04 199.45 161.33 199.41 159.61 199.42 C 161.07 196.71 162.43 194.33 164.94 192.44 Z" id="p62" />
<path d="M 77.94 193.40 C 80.02 193.12 82.13 192.83 84.22 192.63 L 85.10 192.61 C 85.59 194.10 86.14 195.57 86.81 197.00 C 84.30 198.65 82.07 199.11 79.12 199.33 C 78.72 197.35 78.33 195.37 77.94 193.40 Z" id="p63" />
<path d="M 90.24 192.78 C 91.09 193.30 91.92 193.84 92.73 194.42 C 92.37 195.05 92.01 195.69 91.66 196.34 C 91.14 195.17 90.67 193.98 90.24 192.78 Z" id="p64" />
<path d="M 92.73 194.42 C 95.91 196.87 99.45 198.97 102.43 201.66 C 102.75 203.47 102.71 205.38 102.76 207.23 C 97.68 204.63 94.39 201.34 91.66 196.34 C 92.01 195.69 92.37 195.05 92.73 194.42 Z" id="p65" />
<path d="M 89.28 199.55 C 90.60 200.99 91.75 202.59 93.04 204.06 C 95.42 206.97 99.31 208.87 102.54 210.73 C 102.98 223.82 102.14 236.90 102.54 250.00 L 67.70 250.00 C 66.67 245.27 65.75 240.61 63.67 236.19 C 61.42 231.43 59.90 225.12 62.17 220.14 C 67.30 211.84 75.99 209.78 84.52 206.58 C 82.10 205.43 79.81 204.60 78.05 202.49 C 80.35 201.30 82.76 200.41 85.24 199.65 C 86.59 199.60 87.93 199.56 89.28 199.55 Z" id="p66" />
<path d="M 212.13 198.99 C 217.47 199.39 222.91 200.44 228.17 201.41 C 228.03 202.54 227.86 203.66 227.66 204.78 C 227.55 206.95 225.21 208.42 223.65 209.67 L 222.47 208.77 C 223.00 208.52 223.52 208.26 224.05 208.00 C 221.90 206.69 219.79 205.33 217.62 204.04 C 217.12 203.76 216.62 203.47 216.12 203.18 C 214.73 201.83 213.40 200.44 212.13 198.99 Z" id="p67" />
<path d="M 60.40 200.39 C 68.48 199.04 77.05 200.10 85.24 199.65 C 82.76 200.41 80.35 201.30 78.05 202.49 C 79.81 204.60 82.10 205.43 84.52 206.58 C 75.99 209.78 67.30 211.84 62.17 220.14 C 59.90 225.12 61.42 231.43 63.67 236.19 C 65.75 240.61 66.67 245.27 67.70 250.00 L 61.55 250.00 C 61.12 243.13 60.88 236.16 59.77 229.37 C 58.87 229.16 57.96 228.96 57.04 228.78 C 55.58 228.50 54.12 228.23 52.66 227.96 C 52.68 225.92 52.71 223.89 52.77 221.85 C 52.85 220.22 52.90 218.59 53.00 216.96 C 52.98 210.89 56.18 204.61 60.40 200.39 Z" id="p68" />
<path d="M 106.04 200.54 C 118.43 200.03 131.26 201.71 143.57 200.04 C 143.51 201.97 143.57 203.97 143.23 205.87 C 141.74 208.19 139.60 207.14 137.26 207.43 C 132.00 207.52 127.32 209.79 122.02 209.53 C 118.06 209.73 114.34 208.94 110.54 207.97 C 109.62 209.53 108.66 211.07 107.66 212.57 C 106.44 208.52 105.23 204.82 106.04 200.54 Z" id="p69" />
<path d="M 159.61 199.42 C 161.33 199.41 163.04 199.45 164.76 199.51 C 166.87 200.27 168.96 201.13 171.04 201.98 C 171.16 202.41 171.27 202.84 171.38 203.26 C 170.27 204.11 169.15 204.96 168.04 205.81 C 171.88 208.34 174.95 210.07 179.74 209.13 C 180.87 211.54 182.32 213.90 183.13 216.43 C 183.29 219.26 182.29 222.15 182.26 225.01 C 182.01 228.28 182.94 231.23 184.00 234.26 C 181.17 239.21 180.91 244.45 180.61 250.00 L 146.37 250.00 C 146.11 241.33 146.18 232.67 146.06 224.00 C 146.04 219.34 145.21 214.08 146.46 209.56 C 148.18 207.89 150.55 206.82 152.55 205.48 C 155.23 203.79 157.35 201.61 159.61 199.42 Z" id="p70" />
<path d="M 164.76 199.51 C 168.63 199.54 172.49 199.52 176.36 199.41 C 177.53 202.64 178.51 205.93 179.74 209.13 C 174.95 210.07 171.88 208.34 168.04 205.81 C 169.15 204.96 170.27 204.11 171.38 203.26 C 171.27 202.84 171.16 202.41 171.04 201.98 C 168.96 201.13 166.87 200.27 164.76 199.51 Z" id="p71" />
<path d="M 217.62 204.04 C 219.79 205.33 221.90 206.69 224.05 208.00 C 223.52 208.26 223.00 208.52 222.47 208.77 C 220.19 207.06 218.04 205.29 216.12 203.18 C 216.62 203.47 217.12 203.76 217.62 204.04 Z" id="p72" />
<path d="M 236.81 205.10 C 237.67 206.41 238.63 207.76 239.26 209.19 C 238.98 213.24 235.74 217.69 237.26 221.59 C 237.89 223.79 238.75 225.92 239.38 228.12 C 238.41 227.85 237.44 227.58 236.47 227.31 C 236.10 219.88 236.32 212.53 236.81 205.10 Z" id="p73" />
<path d="M 236.81 205.10 C 237.68 205.60 238.54 206.11 239.40 206.63 C 239.98 212.00 239.55 217.58 239.68 223.00 C 239.70 226.61 240.01 230.30 239.63 233.90 C 239.50 235.64 238.24 236.46 237.20 237.71 C 238.01 234.51 239.05 231.43 239.38 228.12 C 238.75 225.92 237.89 223.79 237.26 221.59 C 235.74 217.69 238.98 213.24 239.26 209.19 C 238.63 207.76 237.67 206.41 236.81 205.10 Z" id="p74" />
<path d="M 39.77 209.80 C 39.45 223.19 39.73 236.60 39.65 250.00 L 36.52 250.00 C 36.59 241.99 36.47 233.97 36.49 225.96 C 36.46 220.21 39.00 215.51 39.77 209.80 Z" id="p75" />
<path d="M 142.30 210.74 C 142.33 214.11 142.20 217.44 141.93 220.79 C 140.09 220.93 138.25 221.07 136.42 221.29 C 136.33 222.75 136.29 224.21 136.25 225.67 C 138.10 225.70 139.94 225.73 141.79 225.77 C 141.79 226.74 141.79 227.71 141.79 228.69 C 139.95 228.70 138.11 228.73 136.28 228.78 C 136.34 230.61 136.41 232.44 136.47 234.27 C 138.23 234.45 139.99 234.61 141.73 234.93 L 141.83 236.07 C 140.02 236.24 138.21 236.35 136.41 236.55 C 136.31 238.66 136.31 240.78 136.28 242.89 C 138.28 242.87 140.27 242.82 142.27 242.78 C 142.28 243.73 142.29 244.69 142.29 245.64 C 140.37 245.80 138.46 245.96 136.55 246.22 C 136.39 247.48 136.25 248.74 136.11 250.00 L 109.96 250.00 C 109.05 248.71 107.92 248.24 106.56 248.60 C 106.57 247.81 106.57 247.01 106.56 246.22 C 107.66 246.09 108.76 245.95 109.85 245.81 C 109.81 244.08 109.77 242.35 109.74 240.62 C 108.69 240.43 107.63 240.24 106.57 240.05 C 106.57 239.09 106.57 238.13 106.57 237.17 C 107.60 236.85 108.64 236.53 109.68 236.21 C 109.74 234.80 109.81 233.38 109.87 231.97 C 108.76 232.01 107.64 232.07 106.53 232.14 C 106.53 231.10 106.54 230.06 106.56 229.03 C 107.63 228.91 108.70 228.79 109.77 228.68 C 109.79 227.21 109.82 225.74 109.85 224.27 C 108.80 224.14 107.75 224.00 106.70 223.87 C 106.71 222.97 106.72 222.07 106.73 221.17 C 107.75 221.09 108.78 221.00 109.81 220.92 C 109.78 218.84 109.74 216.76 109.72 214.68 C 115.83 214.10 121.95 214.81 128.04 214.43 C 130.84 214.24 133.31 212.66 135.86 211.58 C 136.09 213.73 136.27 215.89 136.43 218.04 C 137.78 218.10 139.12 218.15 140.46 218.19 C 140.53 215.93 140.58 213.66 140.61 211.40 C 139.03 211.44 137.44 211.50 135.86 211.58 C 138.00 211.17 140.13 210.96 142.30 210.74 Z" id="p76" />
<path d="M 184.63 211.39 C 188.50 211.34 192.36 211.14 196.22 211.04 C 204.36 211.53 212.47 211.18 220.61 211.22 L 220.68 212.14 C 218.86 212.06 217.04 211.96 215.21 211.89 C 208.89 211.87 201.75 210.92 195.66 212.69 C 192.59 213.56 189.60 214.13 186.42 214.44 C 185.83 213.41 185.24 212.40 184.63 211.39 Z" id="p77" />
<path d="M 135.86 211.58 C 137.44 211.50 139.03 211.44 140.61 211.40 C 140.58 213.66 140.53 215.93 140.46 218.19 C 139.12 218.15 137.78 218.10 136.43 218.04 C 136.27 215.89 136.09 213.73 135.86 211.58 Z" id="p78" />
<path d="M 195.66 212.69 C 201.75 210.92 208.89 211.87 215.21 211.89 C 214.59 212.75 213.97 213.60 213.35 214.46 C 204.37 214.45 195.39 214.68 186.42 214.44 C 189.60 214.13 192.59 213.56 195.66 212.69 Z" id="p79" />
<path d="M 43.62 214.77 C 43.61 217.81 43.82 220.82 44.05 223.86 C 46.30 224.47 48.54 225.09 50.79 225.73 C 51.46 224.44 52.14 223.16 52.77 221.85 C 52.71 223.89 52.68 225.92 52.66 227.96 C 52.54 235.31 52.33 242.65 52.45 250.00 L 43.29 250.00 C 43.41 238.26 43.41 226.50 43.62 214.77 Z" id="p80" />
<path d="M 106.82 215.31 C 107.79 215.08 108.75 214.87 109.72 214.68 C 109.74 216.76 109.78 218.84 109.81 220.92 C 108.78 221.00 107.75 221.09 106.73 221.17 C 106.74 219.21 106.73 217.27 106.82 215.31 Z" id="p81" />
<path d="M 186.32 219.30 C 187.11 218.98 187.90 218.69 188.69 218.41 C 190.66 224.40 193.68 229.84 195.35 235.93 C 204.61 235.76 213.89 235.53 223.14 235.83 C 223.59 237.45 224.07 239.09 224.41 240.74 C 220.68 239.31 216.89 237.55 212.98 236.75 C 206.23 236.24 199.33 237.02 192.58 236.30 C 190.05 236.07 188.08 234.27 186.81 232.17 C 185.01 228.32 185.49 223.35 186.32 219.30 Z" id="p82" />
<path d="M 136.42 221.29 C 138.25 221.07 140.09 220.93 141.93 220.79 C 141.84 222.45 141.80 224.11 141.79 225.77 C 139.94 225.73 138.10 225.70 136.25 225.67 C 136.29 224.21 136.33 222.75 136.42 221.29 Z" id="p83" />
<path d="M 106.70 223.87 C 107.75 224.00 108.80 224.14 109.85 224.27 C 109.82 225.74 109.79 227.21 109.77 228.68 C 108.70 228.79 107.63 228.91 106.56 229.03 C 106.59 227.31 106.66 225.59 106.70 223.87 Z" id="p84" />
<path d="M 52.66 227.96 C 54.12 228.23 55.58 228.50 57.04 228.78 C 57.09 234.65 57.43 240.50 57.94 246.35 C 56.49 246.06 55.05 245.78 53.60 245.51 C 54.26 247.03 54.95 248.54 55.74 250.00 L 52.45 250.00 C 52.33 242.65 52.54 235.31 52.66 227.96 Z" id="p85" />
<path d="M 57.04 228.78 C 57.96 228.96 58.87 229.16 59.77 229.37 C 60.88 236.16 61.12 243.13 61.55 250.00 L 55.74 250.00 C 54.95 248.54 54.26 247.03 53.60 245.51 C 55.05 245.78 56.49 246.06 57.94 246.35 C 57.43 240.50 57.09 234.65 57.04 228.78 Z" id="p86" />
<path d="M 136.28 228.78 C 138.11 228.73 139.95 228.70 141.79 228.69 C 141.78 230.77 141.71 232.85 141.73 234.93 C 139.99 234.61 138.23 234.45 136.47 234.27 C 136.41 232.44 136.34 230.61 136.28 228.78 Z" id="p87" />
<path d="M 220.65 229.56 C 224.19 229.17 227.71 229.02 231.27 229.04 C 230.62 230.92 229.96 232.79 229.29 234.66 C 226.24 233.22 223.34 231.59 220.65 229.56 Z" id="p88" />
<path d="M 106.53 232.14 C 107.64 232.07 108.76 232.01 109.87 231.97 C 109.81 233.38 109.74 234.80 109.68 236.21 C 108.64 236.53 107.60 236.85 106.57 237.17 C 106.55 235.49 106.51 233.82 106.53 232.14 Z" id="p89" />
<path d="M 184.00 234.26 C 185.98 238.95 184.32 244.95 184.22 250.00 L 180.61 250.00 C 180.91 244.45 181.17 239.21 184.00 234.26 Z" id="p90" />
<path d="M 136.41 236.55 C 138.21 236.35 140.02 236.24 141.83 236.07 C 142.07 238.30 142.24 240.54 142.27 242.78 C 140.27 242.82 138.28 242.87 136.28 242.89 C 136.31 240.78 136.31 238.66 136.41 236.55 Z" id="p91" />
<path d="M 106.57 240.05 C 107.63 240.24 108.69 240.43 109.74 240.62 C 109.77 242.35 109.81 244.08 109.85 245.81 C 108.76 245.95 107.66 246.09 106.56 246.22 C 106.55 244.16 106.55 242.11 106.57 240.05 Z" id="p92" />
<path d="M 192.83 242.22 L 194.79 242.22 C 197.47 242.35 200.17 242.66 202.84 242.94 C 202.85 245.29 202.85 247.65 202.84 250.00 L 193.80 250.00 C 193.26 247.44 192.95 244.84 192.83 242.22 Z" id="p93" />
<path d="M 188.02 241.44 C 189.32 244.45 189.36 245.49 188.03 248.51 C 186.44 245.34 186.46 244.62 188.02 241.44 Z" id="p94" />
<path d="M 136.55 246.22 C 138.46 245.96 140.37 245.80 142.29 245.64 C 142.29 247.09 142.29 248.55 142.30 250.00 L 136.11 250.00 C 136.25 248.74 136.39 247.48 136.55 246.22 Z" id="p95" />
<path d="M 106.56 248.60 C 107.92 248.24 109.05 248.71 109.96 250.00 L 106.72 250.00 L 106.56 248.60 Z" id="p96" />
</defs>
<g stroke-width="10pt">
<use stroke="#30ade3" xlink:href="#p0" />
<use stroke="#000000" xlink:href="#p1" />
<use stroke="#575757" xlink:href="#p2" />
<use stroke="#999999" xlink:href="#p3" />
<use stroke="#575757" xlink:href="#p4" />
<use stroke="#575757" xlink:href="#p5" />
<use stroke="#30ade3" xlink:href="#p6" />
<use stroke="#fccebc" xlink:href="#p7" />
<use stroke="#fae7dd" xlink:href="#p8" />
<use stroke="#575757" xlink:href="#p9" />
<use stroke="#000000" xlink:href="#p10" />
<use stroke="#000000" xlink:href="#p11" />
<use stroke="#d99d8d" xlink:href="#p12" />
<use stroke="#d99d8d" xlink:href="#p13" />
<use stroke="#000000" xlink:href="#p14" />
<use stroke="#000000" xlink:href="#p15" />
<use stroke="#575757" xlink:href="#p16" />
<use stroke="#999999" xlink:href="#p17" />
<use stroke="#d99d8d" xlink:href="#p18" />
<use stroke="#d99d8d" xlink:href="#p19" />
<use stroke="#d99d8d" xlink:href="#p20" />
<use stroke="#000000" xlink:href="#p21" />
<use stroke="#000000" xlink:href="#p22" />
<use stroke="#fae7dd" xlink:href="#p23" />
<use stroke="#fdfefe" xlink:href="#p24" />
<use stroke="#000000" xlink:href="#p25" />
<use stroke="#fae7dd" xlink:href="#p26" />
<use stroke="#fdfefe" xlink:href="#p27" />
<use stroke="#fdfefe" xlink:href="#p28" />
<use stroke="#fae7dd" xlink:href="#p29" />
<use stroke="#fdfefe" xlink:href="#p30" />
<use stroke="#fdfefe" xlink:href="#p31" />
<use stroke="#fae7dd" xlink:href="#p32" />
<use stroke="#fccebc" xlink:href="#p33" />
<use stroke="#a6685d" xlink:href="#p34" />
<use stroke="#a6685d" xlink:href="#p35" />
<use stroke="#fccebc" xlink:href="#p36" />
<use stroke="#d99d8d" xlink:href="#p37" />
<use stroke="#d99d8d" xlink:href="#p38" />
<use stroke="#d99d8d" xlink:href="#p39" />
<use stroke="#000000" xlink:href="#p40" />
<use stroke="#000000" xlink:href="#p41" />
<use stroke="#a6685d" xlink:href="#p42" />
<use stroke="#fccebc" xlink:href="#p43" />
<use stroke="#fae7dd" xlink:href="#p44" />
<use stroke="#d99d8d" xlink:href="#p45" />
<use stroke="#000000" xlink:href="#p46" />
<use stroke="#fccebc" xlink:href="#p47" />
<use stroke="#fae7dd" xlink:href="#p48" />
<use stroke="#000000" xlink:href="#p49" />
<use stroke="#d99d8d" xlink:href="#p50" />
<use stroke="#30ade3" xlink:href="#p51" />
<use stroke="#d99d8d" xlink:href="#p52" />
<use stroke="#fccebc" xlink:href="#p53" />
<use stroke="#fae7dd" xlink:href="#p54" />
<use stroke="#fdfefe" xlink:href="#p55" />
<use stroke="#01aaa9" xlink:href="#p56" />
<use stroke="#285481" xlink:href="#p57" />
<use stroke="#01aaa9" xlink:href="#p58" />
<use stroke="#d99d8d" xlink:href="#p59" />
<use stroke="#fdfefe" xlink:href="#p60" />
<use stroke="#008280" xlink:href="#p61" />
<use stroke="#fdfefe" xlink:href="#p62" />
<use stroke="#fae7dd" xlink:href="#p63" />
<use stroke="#fdfefe" xlink:href="#p64" />
<use stroke="#008280" xlink:href="#p65" />
<use stroke="#008280" xlink:href="#p66" />
<use stroke="#d99d8d" xlink:href="#p67" />
<use stroke="#01aaa9" xlink:href="#p68" />
<use stroke="#fccebc" xlink:href="#p69" />
<use stroke="#008280" xlink:href="#p70" />
<use stroke="#01aaa9" xlink:href="#p71" />
<use stroke="#000000" xlink:href="#p72" />
<use stroke="#d99d8d" xlink:href="#p73" />
<use stroke="#575757" xlink:href="#p74" />
<use stroke="#008280" xlink:href="#p75" />
<use stroke="#285481" xlink:href="#p76" />
<use stroke="#a6685d" xlink:href="#p77" />
<use stroke="#fae7dd" xlink:href="#p78" />
<use stroke="#575757" xlink:href="#p79" />
<use stroke="#fae7dd" xlink:href="#p80" />
<use stroke="#fdfefe" xlink:href="#p81" />
<use stroke="#d99d8d" xlink:href="#p82" />
<use stroke="#fdfefe" xlink:href="#p83" />
<use stroke="#fdfefe" xlink:href="#p84" />
<use stroke="#008280" xlink:href="#p85" />
<use stroke="#000000" xlink:href="#p86" />
<use stroke="#fdfefe" xlink:href="#p87" />
<use stroke="#d99d8d" xlink:href="#p88" />
<use stroke="#fdfefe" xlink:href="#p89" />
<use stroke="#01aaa9" xlink:href="#p90" />
<use stroke="#fdfefe" xlink:href="#p91" />
<use stroke="#fdfefe" xlink:href="#p92" />
<use stroke="#d99d8d" xlink:href="#p93" />
<use stroke="#008280" xlink:href="#p94" />
<use stroke="#fdfefe" xlink:href="#p95" />
<use stroke="#fdfefe" xlink:href="#p96" />
</g>
<g>
<use fill="#30ade3" xlink:href="#p0" />
<use fill="#000000" xlink:href="#p1" />
<use fill="#575757" xlink:href="#p2" />
<use fill="#999999" xlink:href="#p3" />
<use fill="#575757" xlink:href="#p4" />
<use fill="#575757" xlink:href="#p5" />
<use fill="#30ade3" xlink:href="#p6" />
<use fill="#fccebc" xlink:href="#p7" />
<use fill="#fae7dd" xlink:href="#p8" />
<use fill="#575757" xlink:href="#p9" />
<use fill="#000000" xlink:href="#p10" />
<use fill="#000000" xlink:href="#p11" />
<use fill="#d99d8d" xlink:href="#p12" />
<use fill="#d99d8d" xlink:href="#p13" />
<use fill="#000000" xlink:href="#p14" />
<use fill="#000000" xlink:href="#p15" />
<use fill="#575757" xlink:href="#p16" />
<use fill="#999999" xlink:href="#p17" />
<use fill="#d99d8d" xlink:href="#p18" />
<use fill="#d99d8d" xlink:href="#p19" />
<use fill="#d99d8d" xlink:href="#p20" />
<use fill="#000000" xlink:href="#p21" />
<use fill="#000000" xlink:href="#p22" />
<use fill="#fae7dd" xlink:href="#p23" />
<use fill="#fdfefe" xlink:href="#p24" />
<use fill="#000000" xlink:href="#p25" />
<use fill="#fae7dd" xlink:href="#p26" />
<use fill="#fdfefe" xlink:href="#p27" />
<use fill="#fdfefe" xlink:href="#p28" />
<use fill="#fae7dd" xlink:href="#p29" />
<use fill="#fdfefe" xlink:href="#p30" />
<use fill="#fdfefe" xlink:href="#p31" />
<use fill="#fae7dd" xlink:href="#p32" />
<use fill="#fccebc" xlink:href="#p33" />
<use fill="#a6685d" xlink:href="#p34" />
<use fill="#a6685d" xlink:href="#p35" />
<use fill="#fccebc" xlink:href="#p36" />
<use fill="#d99d8d" xlink:href="#p37" />
<use fill="#d99d8d" xlink:href="#p38" />
<use fill="#d99d8d" xlink:href="#p39" />
<use fill="#000000" xlink:href="#p40" />
<use fill="#000000" xlink:href="#p41" />
<use fill="#a6685d" xlink:href="#p42" />
<use fill="#fccebc" xlink:href="#p43" />
<use fill="#fae7dd" xlink:href="#p44" />
<use fill="#d99d8d" xlink:href="#p45" />
<use fill="#000000" xlink:href="#p46" />
<use fill="#fccebc" xlink:href="#p47" />
<use fill="#fae7dd" xlink:href="#p48" />
<use fill="#000000" xlink:href="#p49" />
<use fill="#d99d8d" xlink:href="#p50" />
<use fill="#30ade3" xlink:href="#p51" />
<use fill="#d99d8d" xlink:href="#p52" />
<use fill="#fccebc" xlink:href="#p53" />
<use fill="#fae7dd" xlink:href="#p54" />
<use fill="#fdfefe" xlink:href="#p55" />
<use fill="#01aaa9" xlink:href="#p56" />
<use fill="#285481" xlink:href="#p57" />
<use fill="#01aaa9" xlink:href="#p58" />
<use fill="#d99d8d" xlink:href="#p59" />
<use fill="#fdfefe" xlink:href="#p60" />
<use fill="#008280" xlink:href="#p61" />
<use fill="#fdfefe" xlink:href="#p62" />
<use fill="#fae7dd" xlink:href="#p63" />
<use fill="#fdfefe" xlink:href="#p64" />
<use fill="#008280" xlink:href="#p65" />
<use fill="#008280" xlink:href="#p66" />
<use fill="#d99d8d" xlink:href="#p67" />
<use fill="#01aaa9" xlink:href="#p68" />
<use fill="#fccebc" xlink:href="#p69" />
<use fill="#008280" xlink:href="#p70" />
<use fill="#01aaa9" xlink:href="#p71" />
<use fill="#000000" xlink:href="#p72" />
<use fill="#d99d8d" xlink:href="#p73" />
<use fill="#575757" xlink:href="#p74" />
<use fill="#008280" xlink:href="#p75" />
<use fill="#285481" xlink:href="#p76" />
<use fill="#a6685d" xlink:href="#p77" />
<use fill="#fae7dd" xlink:href="#p78" />
<use fill="#575757" xlink:href="#p79" />
<use fill="#fae7dd" xlink:href="#p80" />
<use fill="#fdfefe" xlink:href="#p81" />
<use fill="#d99d8d" xlink:href="#p82" />
<use fill="#fdfefe" xlink:href="#p83" />
<use fill="#fdfefe" xlink:href="#p84" />
<use fill="#008280" xlink:href="#p85" />
<use fill="#000000" xlink:href="#p86" />
<use fill="#fdfefe" xlink:href="#p87" />
<use fill="#d99d8d" xlink:href="#p88" />
<use fill="#fdfefe" xlink:href="#p89" />
<use fill="#01aaa9" xlink:href="#p90" />
<use fill="#fdfefe" xlink:href="#p91" />
<use fill="#fdfefe" xlink:href="#p92" />
<use fill="#d99d8d" xlink:href="#p93" />
<use fill="#008280" xlink:href="#p94" />
<use fill="#fdfefe" xlink:href="#p95" />
<use fill="#fdfefe" xlink:href="#p96" />
</g>
</svg>